<svg width="429" height="373" viewBox="0 0 429 373" fill="none" xmlns="http://www.w3.org/2000/svg">
<path d="M141.01 301.597C89.2878 299.607 27.9724 259.6 21.1976 205.136C14.7323 153.193 54.3531 118.733 99.4887 103.294C132.235 92.1205 167.645 85.8541 195.717 65.5962C218.086 49.4495 234.277 25.3455 258.226 11.6191C278.642 0.0914646 302.754 -3.00577 325.421 2.98767C421.859 28.8268 412.863 167.66 380.083 238.59C362.046 277.636 319.862 304.161 278.185 310.25C232.961 316.87 186.223 303.332 141.01 301.597Z" fill="#D6F0FF"/>
<path d="M214.284 372.35C332.629 372.35 428.567 366.749 428.567 359.84C428.567 352.93 332.629 347.329 214.284 347.329C95.938 347.329 0 352.93 0 359.84C0 366.749 95.938 372.35 214.284 372.35Z" fill="#F5F5F5"/>
<path d="M355.477 95.2927L227.956 97.4072L229.483 189.467L357.003 187.353L355.477 95.2927Z" fill="#66C9FF"/>
<path opacity="0.3" d="M304.928 96.1205L227.831 97.3989L229.357 189.459L306.455 188.18L304.928 96.1205Z" fill="white"/>
<path opacity="0.3" d="M316.546 102.323L294.343 102.767L294.467 108.956L316.67 108.512L316.546 102.323Z" fill="white"/>
<path opacity="0.3" d="M317.206 173.91L295.006 174.278L295.108 180.466L317.309 180.098L317.206 173.91Z" fill="white"/>
<path d="M332.007 154.22C339.203 154.22 345.037 147.619 345.037 139.477C345.037 131.334 339.203 124.733 332.007 124.733C324.811 124.733 318.977 131.334 318.977 139.477C318.977 147.619 324.811 154.22 332.007 154.22Z" stroke="white" stroke-miterlimit="10"/>
<path d="M332.548 126.978V129.453" stroke="white" stroke-linecap="round" stroke-linejoin="round"/>
<path d="M333.112 149.655V152.131" stroke="white" stroke-linecap="round" stroke-linejoin="round"/>
<path d="M321.021 138.991H323.508" stroke="white" stroke-linecap="round" stroke-linejoin="round"/>
<path d="M340.981 139.001H343.468" stroke="white" stroke-linecap="round" stroke-linejoin="round"/>
<path d="M332.537 138.991L332.548 131.365" stroke="white" stroke-width="0.5" stroke-linecap="round" stroke-linejoin="round"/>
<path d="M333.024 139.487L338.417 144.881" stroke="white" stroke-width="0.5" stroke-linecap="round" stroke-linejoin="round"/>
<path d="M333.742 139.002C333.742 139.24 333.672 139.473 333.539 139.671C333.407 139.869 333.219 140.024 332.999 140.115C332.779 140.206 332.536 140.23 332.303 140.184C332.069 140.137 331.854 140.022 331.686 139.854C331.517 139.685 331.403 139.471 331.356 139.237C331.31 139.003 331.334 138.761 331.425 138.541C331.516 138.321 331.67 138.133 331.868 138C332.067 137.868 332.299 137.797 332.538 137.797C332.696 137.796 332.854 137.826 333 137.886C333.147 137.946 333.281 138.035 333.393 138.147C333.505 138.259 333.594 138.392 333.654 138.539C333.714 138.686 333.744 138.843 333.742 139.002Z" fill="white"/>
<path opacity="0.3" d="M332.007 158.122C341.535 158.122 349.259 149.774 349.259 139.477C349.259 129.18 341.535 120.833 332.007 120.833C322.479 120.833 314.755 129.18 314.755 139.477C314.755 149.774 322.479 158.122 332.007 158.122Z" fill="white"/>
<path d="M188.731 301.164C190.654 302.634 229.258 298.479 219.279 229.991C219.279 229.991 237.591 234.644 239.559 234.334C239.559 234.334 266.426 275.524 246.864 295.926C227.302 316.327 198.148 317.576 198.148 317.576L188.731 301.164Z" fill="#66C9FF"/>
<path opacity="0.3" d="M188.731 301.164C190.654 302.634 229.258 298.479 219.279 229.991C219.279 229.991 237.591 234.644 239.559 234.334C239.559 234.334 266.426 275.524 246.864 295.926C227.302 316.327 198.148 317.576 198.148 317.576L188.731 301.164Z" fill="black"/>
<path d="M231.513 240.59C231.612 240.59 220.726 240.8 217.079 236.269C213.432 231.738 210.968 223.637 217.599 218.111C224.23 212.585 263.165 188.713 281.5 186.834C299.835 184.955 319.463 196.781 319.463 196.781L295.459 214.53L243.769 227.041L231.513 240.59Z" fill="#263238"/>
<path d="M196.313 290.378L197.319 300.28L209.21 299.274L207.42 289.096L196.313 290.378Z" fill="#FFC3BD"/>
<path d="M194.003 299.562L211.255 299.319L212.481 308.028C212.481 308.028 196.324 308.249 189.682 307.365C183.039 306.481 184.078 303.022 184.078 303.022C184.078 303.022 191.859 303.21 194.003 299.562Z" fill="#263238"/>
<path d="M344.559 324.628C347.135 299.312 331.851 277.022 310.422 274.841C288.992 272.661 269.532 291.416 266.956 316.732C264.38 342.047 279.664 364.337 301.093 366.518C322.523 368.698 341.983 349.944 344.559 324.628Z" fill="#263238"/>
<path d="M278.649 179.75C278.649 179.75 280.439 220.829 256.545 222.001C232.651 223.172 206.978 220.553 206.978 220.553L214.504 294.368L192.102 295.75C192.102 295.75 176.022 233.13 173.491 217.392C170.96 201.655 173.16 190.525 189.77 183.541C206.381 176.556 278.649 179.75 278.649 179.75Z" fill="#66C9FF"/>
<path d="M144.933 310.083L174.695 223.636L214.482 179.716C214.482 179.716 179.757 179.849 163.069 189.442C146.381 199.035 145.762 210.562 142.7 224.277C139.639 237.992 127.36 302.911 127.36 302.911L144.933 310.083Z" fill="#66C9FF"/>
<path opacity="0.7" d="M278.649 179.749C278.649 179.749 241.669 178.103 214.548 179.749C214.548 179.749 179.823 179.882 163.135 189.475C146.447 199.068 145.762 210.562 142.7 224.277C139.639 237.992 127.36 302.911 127.36 302.911L144.933 310.083L174.695 223.636C179.702 247.597 192.102 295.705 192.102 295.705L214.504 294.368L206.967 220.597C206.967 220.597 232.629 223.216 256.534 222.045C280.439 220.873 278.649 179.749 278.649 179.749Z" fill="black"/>
<path d="M217.599 113.118L203.861 114.787C203.861 114.787 201.474 140.04 199.253 144.947C199.253 144.947 157.002 150.75 139.695 150.252L130.908 156.22L130.599 166.598L139.208 166.852L141.982 160.276C141.982 160.276 147.795 160.022 149.144 156.751C149.144 156.751 194.036 167.593 210.57 155.215C210.592 155.226 220.561 140.582 217.599 113.118Z" fill="#FFC3BD"/>
<path d="M256.965 45.4917C256.965 45.4917 261.264 51.0176 259.629 55.803C259.177 57.1678 258.382 58.3932 257.319 59.3611C256.256 60.329 254.962 61.0067 253.561 61.3289C253.561 61.3289 252.755 68.9879 248.234 69.2089C243.714 69.4299 245.228 52.3328 245.228 52.3328L256.965 45.4917Z" fill="#263238"/>
<path d="M222.163 179.938L219.146 130.569L200.424 118.125C200.424 118.125 206.547 96.5406 218.262 92.8824C229.977 89.2243 255.528 80.8359 271.023 85.0025C286.518 89.169 284.738 107.449 282.075 121.009L279.091 121.717C279.091 121.717 278.627 175.152 278.605 179.75L222.163 179.938Z" fill="#263238"/>
<path d="M255.849 88.0527C249.715 93.9875 237.205 97.524 233.745 94.5732C230.286 91.6224 234.652 88.9147 237.901 85.577C239.658 83.7424 239.603 80.3053 239.194 77.5645C238.979 76.1834 238.661 74.8203 238.244 73.4864C226.761 72.8564 221.997 67.4852 221.522 58.0138C221.047 48.5424 225.335 37.5459 225.335 37.5459L233.447 30.6274C233.447 30.6274 244.499 32.2852 253.34 38.3637C258.601 41.9445 257.043 48.9956 254.865 54.201C253.943 56.4167 252.834 58.55 251.55 60.5779C250.312 73.5416 255.849 88.0527 255.849 88.0527Z" fill="#FFC3BD"/>
<path d="M227.91 60.6231C227.91 60.6231 232.331 60.8331 234.265 58.0923" stroke="#263238" stroke-linecap="round" stroke-linejoin="round"/>
<path d="M234.95 49.4375C234.95 50.2775 234.441 50.9406 233.844 50.9295C233.248 50.9185 232.817 50.2222 232.839 49.3823C232.861 48.5423 233.347 47.8792 233.944 47.8903C234.541 47.9013 234.983 48.5976 234.95 49.4375Z" fill="#263238"/>
<path d="M224.871 49.7036C224.871 50.5436 224.363 51.2067 223.766 51.1956C223.169 51.1846 222.738 50.4883 222.76 49.6484C222.782 48.8084 223.269 48.1453 223.866 48.1564C224.462 48.1674 224.904 48.8747 224.871 49.7036Z" fill="#263238"/>
<path d="M228.374 56.5668L227.921 49.792L224.683 56.2242C225.188 56.6537 225.814 56.9171 226.474 56.9784C227.135 57.0397 227.798 56.896 228.374 56.5668Z" fill="#ED847E"/>
<path d="M234.419 44.1337C235.267 43.9007 236.17 43.9762 236.967 44.3465C237.765 44.7169 238.405 45.3581 238.774 46.1561" stroke="#263238" stroke-linecap="round" stroke-linejoin="round"/>
<path d="M221.754 45.3818C221.754 45.3818 223.788 43.1714 226.175 43.7351" stroke="#263238" stroke-linecap="round" stroke-linejoin="round"/>
<path d="M254.943 54.2013C242.299 54.6544 240.73 40.3202 240.73 40.3202C234.475 43.6357 225.379 37.5572 225.379 37.5572L233.491 30.6167C233.491 30.6167 244.543 32.2966 253.384 38.353C258.678 41.9448 257.12 49.018 254.943 54.2013Z" fill="#263238"/>
<path d="M221.312 41.757C221.312 41.757 214.77 37.4026 217.654 34.2639C220.539 31.1252 238.21 37.0931 251.417 44.4094C251.417 44.4094 221.169 24.1736 212.946 30.5726C206.149 35.8664 221.224 43.2159 220.771 43.2048L221.312 41.757Z" fill="#66C9FF"/>
<path d="M258.214 40.2757C258.195 42.5674 257.761 44.8367 256.932 46.9731L227.225 32.6058C228.455 31.1846 229.93 29.9945 231.579 29.0913C233.337 28.0856 235.249 27.3762 237.238 26.9915C239.346 26.5883 241.505 26.5137 243.637 26.7704C254.5 28.0193 258.269 36.3744 258.214 40.2757Z" fill="#66C9FF"/>
<path d="M126.653 186.58C126.653 186.58 93.1002 232.997 120.73 304.447" stroke="#263238" stroke-linecap="round" stroke-linejoin="round"/>
<path d="M170.938 210.694C170.938 210.694 170.938 210.783 170.938 210.96C170.938 211.137 170.938 211.236 170.938 211.435V211.545C170.539 216.016 169.8 220.449 168.728 224.808C167.203 231.251 165.18 237.385 163.511 242.314C156.438 263.257 157.256 285.825 157.256 285.825C154.913 282.907 150.625 280.829 145.265 279.37C125.747 274.01 92.6139 276.884 92.6139 276.884C86.1154 254.084 88.4363 218.398 94.9016 198.416C101.367 178.434 119.293 182.943 119.293 182.943C119.293 182.943 138.214 183.496 140.59 183.242C144.939 182.714 149.34 182.804 153.664 183.507C168.275 186.182 171.789 197.731 170.938 210.694Z" fill="#66C9FF"/>
<path d="M316.612 297.683C283.456 327.611 219.455 330.75 171.833 327.434L145.154 279.436L134.345 259.996L169.07 213.192L170.905 210.727C170.905 210.727 170.905 210.815 170.905 210.992C170.905 211.169 170.905 211.269 170.905 211.468V211.578C170.429 219.922 167.357 286.885 191.903 303.308L192.102 303.452C195.423 305.598 199.277 306.777 203.231 306.856C248.267 308.16 247.007 249.386 235.558 236.798L313.705 221.094C313.705 221.094 329.133 259.941 316.612 297.683Z" fill="#66C9FF"/>
<path d="M229.689 224.056C229.689 224.056 222.362 230.134 226.142 238.29C229.921 246.447 266.359 230.609 280.704 227.725C295.05 224.84 311.649 222.022 318.789 220.552C325.928 219.082 325.309 198.603 319.474 196.791C313.639 194.978 256.479 205.08 246.996 210.628C240.735 214.43 234.928 218.935 229.689 224.056Z" fill="#263238"/>
<path d="M248.035 59.2632C247.338 58.5124 246.916 57.5474 246.837 56.5258C246.759 55.5041 247.029 54.4861 247.604 53.6378C249.373 50.9854 252.942 46.7747 256.368 49.9244C261.165 54.3452 252.975 62.3798 249.583 60.4347C249.014 60.119 248.493 59.7246 248.035 59.2632Z" fill="#FFC3BD"/>
<path opacity="0.2" d="M221.312 41.757C221.312 41.757 214.769 37.4026 217.654 34.2639C218.936 32.8714 222.771 33.1587 227.954 34.6396C231.287 35.5369 234.552 36.6708 237.724 38.0325C242.277 40.0108 247.118 42.5417 251.417 44.4094C251.417 44.4094 221.168 24.1736 212.946 30.5726C206.149 35.8664 220.284 42.7296 220.782 43.1937L221.025 42.2985L221.312 41.757Z" fill="black"/>
<path d="M224.418 39.8667C224.418 39.8667 217.786 40.9719 222.362 48.1113L224.418 39.8667Z" fill="#263238"/>
<path d="M230.773 35.5119C230.773 35.5119 220.771 31.9975 217.986 33.9868C215.201 35.9761 218.118 39.7669 221.301 41.723L223.854 42.0546L225.357 37.5234L229.248 37.0481L230.773 35.5119Z" fill="#263238"/>
<path opacity="0.3" d="M244.399 30.1084L242.001 33.656L231.579 29.1247C233.337 28.119 235.249 27.4096 237.238 27.0249L244.399 30.1084Z" fill="white"/>
<path opacity="0.1" d="M242.078 72.5137C241.388 74.3479 240.399 76.0547 239.149 77.5644C238.934 76.1833 238.616 74.8202 238.199 73.4862C239.539 73.3926 240.852 73.0634 242.078 72.5137Z" fill="black"/>
<path d="M142.999 169.704C142.557 177.363 139.241 183.629 135.174 185.176C134.47 185.447 133.717 185.564 132.964 185.519C127.946 185.232 124.299 177.705 124.808 168.72C125.316 159.735 129.803 152.684 134.821 152.971C136.865 153.082 138.667 154.397 140.07 156.508C142.137 159.536 143.297 164.377 142.999 169.704Z" fill="#F5F5F5"/>
<path d="M142.999 169.703C142.557 177.362 139.242 183.629 135.175 185.176C130.533 184.911 127.162 177.959 127.637 169.703C128.112 161.448 132.246 154.894 136.888 155.159C138.084 155.248 139.215 155.735 140.104 156.541C142.137 159.536 143.298 164.376 142.999 169.703Z" fill="white"/>
<path d="M322.116 278.266C313.573 272.265 280.517 266.375 280.517 266.375C260.436 266.375 242.808 284.444 240.377 308.438C238.387 327.955 247.008 345.671 260.9 353.75C260.9 353.75 262.06 354.236 264.005 354.999C271.366 357.906 290.043 364.946 301.084 366.493" fill="#263238"/>
<path opacity="0.3" d="M344.559 324.628C347.135 299.312 331.851 277.022 310.422 274.841C288.992 272.661 269.532 291.416 266.956 316.732C264.38 342.047 279.664 364.337 301.093 366.518C322.523 368.698 341.983 349.944 344.559 324.628Z" fill="black"/>
<path d="M172.749 323.154C175.325 297.838 160.041 275.548 138.612 273.368C117.182 271.187 97.7218 289.942 95.1459 315.258C92.5699 340.574 107.854 362.864 129.283 365.044C150.713 367.225 170.173 348.47 172.749 323.154Z" fill="#263238"/>
<path d="M157.786 281.813L138.026 364.779C135.143 365.247 132.211 365.332 129.306 365.034H129.085C125.294 364.061 126.985 365.111 123.183 363.851C113.513 360.657 99.466 355.01 99.466 355.01C84.5792 347.771 76.1688 330.165 78.2134 310.051C80.689 285.682 98.1729 267.479 118.751 268.971C118.751 268.971 128.521 270.773 138.578 273.392C142.999 274.497 147.42 275.812 151.056 277.183C153.463 278.473 155.72 280.027 157.786 281.813Z" fill="#263238"/>
<path opacity="0.3" d="M172.75 323.103C170.54 344.93 155.764 361.872 138.003 364.735C135.121 365.202 132.189 365.287 129.284 364.989H129.063C125.016 364.552 121.083 363.38 117.458 361.53C102.527 353.959 93.0778 335.569 95.1445 315.234C97.7196 289.936 117.138 271.203 138.556 273.347H138.611C142.96 273.786 147.181 275.074 151.034 277.138C153.441 278.432 155.699 279.989 157.764 281.78C168.341 290.975 174.497 306.403 172.75 323.103Z" fill="black"/>
<path d="M167.368 294.036C166.72 293.003 165.98 292.03 165.158 291.13C160.218 284.388 148.923 281.868 141.529 282.465C135.861 283.018 130.419 284.97 125.692 288.146C120.298 291.638 116.441 296.987 111.092 300.656C100.947 307.663 85.5515 307.464 75.3617 300.247C74.7871 299.839 74.2406 299.392 73.726 298.91C72.6876 297.829 71.995 296.463 71.7367 294.987C71.3469 293.143 71.4887 291.227 72.1456 289.461C74.356 283.25 81.7276 277.79 86.3804 274.464C95.8135 267.808 106.909 263.902 118.431 263.18C151.288 260.914 165.301 288.975 167.368 294.036Z" fill="#66C9FF"/>
<path opacity="0.3" d="M165.091 294.921C158.029 284.731 148.967 281.869 141.573 282.466C135.905 283.019 130.463 284.971 125.736 288.146C120.343 291.639 116.485 296.988 111.136 300.657C100.991 307.664 85.5957 307.465 75.4059 300.248C74.8313 299.839 74.2848 299.393 73.7702 298.911C72.7318 297.83 72.0391 296.464 71.7809 294.987C71.391 293.144 71.5329 291.228 72.1898 289.461C75.6048 293.407 85.5515 302.912 99.0236 298.303C115.822 292.501 119.923 275.26 137.882 275.415C152.15 275.58 160.936 286.632 165.091 294.921Z" fill="black"/>
<g opacity="0.3">
<path opacity="0.3" d="M91.1877 271.424C95.98 268.018 101.372 265.547 107.08 264.141C112.794 262.687 118.712 262.201 124.586 262.704C130.451 263.269 136.195 264.73 141.617 267.036L143.629 267.921L145.596 268.904C146.922 269.523 148.171 270.297 149.453 271.004C150.735 271.711 151.917 272.584 153.144 273.369C154.371 274.154 155.52 275.071 156.692 275.944C151.872 272.715 146.727 270 141.341 267.843C135.965 265.687 130.301 264.335 124.531 263.831C118.773 263.281 112.964 263.654 107.323 264.937C104.492 265.564 101.716 266.422 99.0235 267.501C96.2911 268.552 93.6669 269.866 91.1877 271.424Z" fill="black"/>
</g>
<g opacity="0.3">
<path opacity="0.3" d="M126.974 263.522C125.596 258.913 124.769 254.157 124.51 249.353C124.145 244.568 124.068 239.76 124.167 234.986C124.266 230.212 124.598 225.393 125.04 220.619L125.847 213.479C126.2 211.103 126.51 208.727 126.952 206.362L125.946 220.729L125.548 227.891C125.482 230.278 125.338 232.665 125.327 235.052C125.14 239.827 125.228 244.601 125.405 249.42C125.482 251.807 125.67 254.183 125.913 256.559C126.107 258.902 126.462 261.228 126.974 263.522Z" fill="black"/>
</g>
<path opacity="0.3" d="M191.848 303.209C168.772 288.367 167.854 250.072 168.639 224.808C168.783 220.464 168.96 216.519 169.092 213.126C169.334 209.73 169.334 206.321 169.092 202.925C166.76 185.574 153.498 183.485 153.498 183.485H153.553C168.241 186.182 171.756 197.731 170.905 210.694C170.905 210.694 170.905 210.783 170.905 210.96C170.905 211.136 170.905 211.236 170.905 211.435V211.545C170.407 219.89 167.335 286.852 191.848 303.209Z" fill="black"/>
<path opacity="0.2" d="M189.969 172.422C188.035 174.445 163.024 169.261 158.659 171.582C156.813 172.555 156.007 176.003 154.15 179.783C148.933 188.071 141.595 189.375 141.142 189.442C149.895 182.811 152.337 166.852 147.994 156.762C143.651 146.671 128.101 149.291 127.217 149.589C129.868 148.423 132.72 147.781 135.616 147.699C144.026 147.257 154.282 149.622 157.156 154.949C162.991 165.813 188.013 163.371 190.311 166.222C192.61 169.073 191.903 170.4 189.969 172.422Z" fill="black"/>
<path d="M170.385 162.774C168.865 165.58 168.258 168.791 168.65 171.958L189.836 174.346C190.919 173.092 191.72 171.62 192.183 170.03C192.647 168.439 192.762 166.768 192.522 165.128C192.522 165.128 171.534 163.018 170.385 162.774Z" fill="#263238"/>
<path d="M106.052 161.99C106.052 161.99 103.942 157.503 106.472 154.663C100.814 154.154 97.3104 153.557 93.6633 153.027C93.1218 154.674 92.8566 156.254 94.7685 158.763C96.6805 161.272 106.052 161.99 106.052 161.99Z" fill="#263238"/>
<path d="M94.2827 190.072C90.6135 196.051 87.4748 205.622 87.1985 220.906" stroke="#66C9FF" stroke-linecap="round" stroke-linejoin="round"/>
<path d="M106.362 180.213C103.693 180.833 101.238 182.157 99.2556 184.048" stroke="#66C9FF" stroke-linecap="round" stroke-linejoin="round"/>
<path d="M271.177 122.601L257.23 124.303C257.23 124.303 254.799 149.932 252.544 154.916C252.544 154.916 209.652 160.818 192.069 160.298L183.15 166.355L182.84 176.898L191.582 177.152L194.401 170.521C194.401 170.521 200.302 170.267 201.662 166.94C201.662 166.94 247.239 177.992 264.027 165.393C264.016 165.349 274.15 150.484 271.177 122.601Z" fill="#FFC3BD"/>
<path opacity="0.2" d="M157.61 319.788C157.212 333.691 148.105 344.698 137.263 344.389C135.806 344.345 134.363 344.096 132.975 343.648C124.288 340.885 118.033 330.64 118.376 318.649C118.718 307.045 125.117 297.452 133.528 294.788C135.208 294.248 136.969 293.997 138.733 294.048C149.575 294.368 158.019 305.929 157.61 319.788Z" fill="#FAFAFA"/>
<path d="M147.63 319.787C147.287 331.656 140.999 341.415 132.975 343.681C124.288 340.918 118.033 330.673 118.376 318.682C118.718 307.077 125.117 297.484 133.528 294.821C141.883 297.086 147.972 307.497 147.63 319.787Z" fill="#263238"/>
<path opacity="0.2" d="M327.896 320.893C327.487 334.796 318.38 345.815 307.549 345.494C306.092 345.457 304.647 345.207 303.261 344.754C294.563 341.991 288.308 331.757 288.662 319.755C288.993 308.161 295.392 298.557 303.803 295.894C305.483 295.353 307.244 295.103 309.008 295.153C319.85 295.474 328.294 307.012 327.896 320.893Z" fill="#FAFAFA"/>
<path d="M317.916 320.893C317.562 332.751 311.285 342.51 303.261 344.776C294.563 342.013 288.308 331.779 288.662 319.776C288.993 308.183 295.392 298.579 303.803 295.916C312.169 298.181 318.27 308.592 317.916 320.893Z" fill="#263238"/>
<path d="M344.982 284.267C345.17 297.938 324.359 306.989 289.535 312.692C280.148 314.342 270.555 314.454 261.132 313.023C245.659 310.47 238.1 303.928 238.1 303.928C238.1 303.928 242.034 256.681 280.97 250.691C307.494 246.624 327.454 257.322 337.577 268.849C342.341 274.265 344.927 279.89 344.982 284.267Z" fill="#66C9FF"/>
<path opacity="0.3" d="M344.982 284.267C345.17 297.938 324.359 306.99 289.535 312.692C280.148 314.343 270.555 314.455 261.132 313.024C262.801 300.193 270.294 266.54 302.863 263.048C317.64 261.456 329.045 264.44 337.577 268.85C342.341 274.265 344.927 279.891 344.982 284.267Z" fill="black"/>
<g opacity="0.3">
<path opacity="0.3" d="M240.354 304.137C241.071 297.706 242.605 291.392 244.919 285.349C247.194 279.243 250.336 273.497 254.246 268.285C256.223 265.695 258.443 263.3 260.877 261.135C263.29 258.934 265.949 257.02 268.802 255.432C274.478 252.231 280.768 250.268 287.258 249.674C284.078 250.207 280.95 251.013 277.908 252.083C276.372 252.547 274.924 253.266 273.488 253.874C272.046 254.564 270.641 255.327 269.277 256.161C267.884 256.957 266.602 257.918 265.287 258.814C263.972 259.709 262.756 260.77 261.596 261.886C259.236 264.031 257.086 266.395 255.175 268.948C251.292 274.059 248.128 279.678 245.77 285.647C244.545 288.621 243.49 291.661 242.609 294.754C241.671 297.834 240.918 300.967 240.354 304.137Z" fill="black"/>
</g>
<path d="M188.101 288.533L190.4 296.335L214.504 294.324L214.824 283.416L188.101 288.533Z" fill="#66C9FF"/>
<path d="M331.61 235.319L384.647 233.164" stroke="#66C9FF" stroke-linecap="round" stroke-linejoin="round"/>
<path d="M402.176 223.505L410.056 223.184" stroke="#66C9FF" stroke-linecap="round" stroke-linejoin="round"/>
<path d="M357.029 225.339L396.13 223.748" stroke="#66C9FF" stroke-linecap="round" stroke-linejoin="round"/>
<path d="M384.394 252.792L417.162 251.466" stroke="#66C9FF" stroke-linecap="round" stroke-linejoin="round"/>
<path d="M364.135 253.621L378.414 253.035" stroke="#66C9FF" stroke-linecap="round" stroke-linejoin="round"/>
</svg>
