<svg width="262" height="491" viewBox="0 0 262 491" fill="none" xmlns="http://www.w3.org/2000/svg">
<path d="M149.338 318.543C129.449 339.134 119.023 340.62 93.805 352.041C73.1828 361.352 52.77 379.457 45.8035 402.016C27.4372 461.396 108.984 468.839 147.491 459.14C174.598 452.31 185.443 436.581 192.31 410.464C194.979 400.315 195.759 389.339 200.161 379.682C204.872 369.303 214.56 364.252 219.38 355.14C242.719 311.006 175.849 291.09 149.338 318.543Z" fill="#D6F0FF"/>
<path d="M27.5419 326.635C27.5446 325.764 27.8918 324.93 28.5077 324.314C29.1235 323.698 29.9579 323.351 30.8289 323.348H177.498C178.368 323.351 179.203 323.698 179.819 324.314C180.435 324.93 180.782 325.764 180.785 326.635V337.213H27.5419V326.635Z" fill="#263238"/>
<path d="M54.1152 333.052C53.5665 333.052 53.0302 332.889 52.574 332.584C52.1178 332.28 51.7622 331.846 51.5523 331.339C51.3423 330.833 51.2874 330.275 51.3944 329.737C51.5015 329.199 51.7657 328.704 52.1536 328.316C52.5416 327.928 53.0359 327.664 53.574 327.557C54.1121 327.45 54.6699 327.505 55.1768 327.715C55.6836 327.925 56.1169 328.28 56.4217 328.737C56.7265 329.193 56.8892 329.729 56.8892 330.278C56.8892 331.014 56.597 331.719 56.0767 332.239C55.5565 332.76 54.8509 333.052 54.1152 333.052ZM54.1152 328.085C53.6814 328.085 53.2574 328.213 52.8968 328.454C52.5361 328.695 52.255 329.038 52.089 329.439C51.9231 329.839 51.8796 330.28 51.9642 330.706C52.0489 331.131 52.2577 331.522 52.5644 331.829C52.8711 332.135 53.2619 332.344 53.6873 332.429C54.1127 332.513 54.5537 332.47 54.9544 332.304C55.3552 332.138 55.6977 331.857 55.9386 331.496C56.1796 331.136 56.3082 330.712 56.3082 330.278C56.3069 329.697 56.0754 329.14 55.6644 328.729C55.2534 328.318 54.6964 328.086 54.1152 328.085Z" fill="#F0F0F0"/>
<path d="M45.3063 333.052C44.7579 333.051 44.222 332.887 43.7665 332.582C43.311 332.276 42.9563 331.843 42.7471 331.336C42.538 330.829 42.4838 330.271 42.5914 329.733C42.699 329.196 42.9637 328.702 43.3518 328.314C43.74 327.927 44.2343 327.663 44.7723 327.557C45.3102 327.45 45.8677 327.505 46.3743 327.715C46.8809 327.926 47.3138 328.281 47.6184 328.737C47.923 329.193 48.0856 329.729 48.0856 330.278C48.0856 330.643 48.0136 331.004 47.8739 331.341C47.7342 331.678 47.5294 331.984 47.2712 332.241C47.0131 332.499 46.7066 332.703 46.3695 332.842C46.0323 332.981 45.671 333.053 45.3063 333.052ZM45.3063 328.085C44.8728 328.086 44.4493 328.215 44.0893 328.457C43.7294 328.699 43.4491 329.041 43.2839 329.442C43.1187 329.843 43.076 330.284 43.1612 330.709C43.2464 331.134 43.4557 331.524 43.7626 331.83C44.0696 332.137 44.4603 332.345 44.8856 332.429C45.3109 332.513 45.7516 332.47 46.152 332.303C46.5524 332.137 46.8946 331.856 47.1354 331.496C47.3761 331.135 47.5046 330.711 47.5046 330.278C47.5032 329.696 47.271 329.138 46.8589 328.727C46.4468 328.316 45.8884 328.085 45.3063 328.085Z" fill="#F0F0F0"/>
<path d="M36.5026 333.052C35.9542 333.051 35.4184 332.887 34.9629 332.582C34.5074 332.276 34.1526 331.843 33.9435 331.336C33.7343 330.829 33.6801 330.271 33.7878 329.733C33.8954 329.196 34.16 328.702 34.5482 328.314C34.9363 327.927 35.4306 327.663 35.9686 327.557C36.5066 327.45 37.0641 327.505 37.5707 327.715C38.0773 327.926 38.5102 328.281 38.8148 328.737C39.1194 329.193 39.2819 329.729 39.2819 330.278C39.2819 330.643 39.21 331.004 39.0703 331.341C38.9305 331.678 38.7257 331.984 38.4676 332.241C38.2094 332.499 37.903 332.703 37.5658 332.842C37.2287 332.981 36.8674 333.053 36.5026 333.052ZM36.5026 328.085C36.0689 328.085 35.6449 328.213 35.2842 328.454C34.9236 328.695 34.6425 329.038 34.4765 329.439C34.3105 329.839 34.2671 330.28 34.3517 330.706C34.4363 331.131 34.6452 331.522 34.9519 331.829C35.2586 332.135 35.6494 332.344 36.0748 332.429C36.5002 332.513 36.9412 332.47 37.3419 332.304C37.7426 332.138 38.0851 331.857 38.3261 331.496C38.5671 331.136 38.6957 330.712 38.6957 330.278C38.6943 329.697 38.4628 329.14 38.0518 328.729C37.6409 328.318 37.0839 328.086 36.5026 328.085Z" fill="#F0F0F0"/>
<path d="M177.498 438.141H30.8289C29.9579 438.139 29.1235 437.791 28.5077 437.175C27.8918 436.56 27.5446 435.725 27.5419 434.854V337.213H180.785V434.854C180.782 435.725 180.435 436.56 179.819 437.175C179.203 437.791 178.368 438.139 177.498 438.141Z" fill="#66C9FF"/>
<path d="M179.853 340.024H28.4735V426.558H179.853V340.024Z" fill="white"/>
<path d="M95.5479 347.44H37.8844C36.783 347.44 35.8902 348.333 35.8902 349.434V357.134C35.8902 358.235 36.783 359.128 37.8844 359.128H95.5479C96.6493 359.128 97.5421 358.235 97.5421 357.134V349.434C97.5421 348.333 96.6493 347.44 95.5479 347.44Z" fill="#66C9FF"/>
<path d="M170.442 347.964C170.832 347.964 171.206 348.119 171.482 348.394C171.758 348.67 171.913 349.044 171.913 349.434V357.134C171.913 357.524 171.758 357.898 171.482 358.174C171.206 358.45 170.832 358.605 170.442 358.605H112.778C112.388 358.605 112.014 358.45 111.738 358.174C111.463 357.898 111.308 357.524 111.308 357.134V349.434C111.308 349.044 111.463 348.67 111.738 348.394C112.014 348.119 112.388 347.964 112.778 347.964H170.442ZM170.442 347.44H112.778C112.25 347.442 111.744 347.652 111.37 348.026C110.996 348.4 110.786 348.906 110.784 349.434V357.134C110.784 357.663 110.994 358.17 111.368 358.544C111.742 358.918 112.25 359.128 112.778 359.128H170.442C170.971 359.128 171.478 358.918 171.852 358.544C172.226 358.17 172.436 357.663 172.436 357.134V349.434C172.435 348.906 172.224 348.4 171.851 348.026C171.477 347.652 170.971 347.442 170.442 347.44Z" fill="#66C9FF"/>
<path d="M46.1385 364.362C48.0619 364.362 49.9421 364.932 51.5413 366.001C53.1406 367.069 54.387 368.588 55.1231 370.365C55.8591 372.142 56.0517 374.098 55.6765 375.984C55.3013 377.87 54.3751 379.603 53.015 380.963C51.655 382.323 49.9222 383.25 48.0357 383.625C46.1493 384 44.1939 383.807 42.4169 383.071C40.6399 382.335 39.1211 381.089 38.0525 379.49C36.984 377.89 36.4136 376.01 36.4136 374.087C36.4164 371.508 37.4418 369.036 39.265 367.213C41.0882 365.39 43.5601 364.365 46.1385 364.362ZM46.1385 363.839C44.1116 363.839 42.1302 364.44 40.4448 365.566C38.7595 366.692 37.446 368.292 36.6703 370.165C35.8946 372.038 35.6917 374.098 36.0871 376.086C36.4826 378.074 37.4586 379.9 38.8919 381.333C40.3251 382.767 42.1512 383.743 44.1391 384.138C46.1271 384.534 48.1877 384.331 50.0603 383.555C51.933 382.779 53.5335 381.466 54.6596 379.78C55.7857 378.095 56.3868 376.114 56.3868 374.087C56.3868 371.369 55.307 368.762 53.3851 366.84C51.4632 364.918 48.8565 363.839 46.1385 363.839Z" fill="#66C9FF"/>
<path opacity="0.4" d="M53.5551 378.117C52.829 379.456 51.755 380.574 50.4464 381.353C49.1377 382.131 47.6431 382.543 46.1202 382.543C44.5972 382.543 43.1026 382.131 41.794 381.353C40.4853 380.574 39.4113 379.456 38.6852 378.117C40.8857 376.646 43.4732 375.861 46.1202 375.861C48.7671 375.861 51.3546 376.646 53.5551 378.117Z" fill="#66C9FF"/>
<path opacity="0.4" d="M46.1385 374.961C48.2198 374.961 49.907 373.274 49.907 371.192C49.907 369.111 48.2198 367.424 46.1385 367.424C44.0572 367.424 42.37 369.111 42.37 371.192C42.37 373.274 44.0572 374.961 46.1385 374.961Z" fill="#66C9FF"/>
<path opacity="0.4" d="M167.166 379.358H67.415C66.0171 379.358 64.6765 378.802 63.688 377.814C62.6996 376.825 62.1443 375.485 62.1443 374.087C62.1443 373.395 62.2807 372.71 62.5456 372.071C62.8105 371.431 63.1989 370.851 63.6884 370.362C64.1778 369.873 64.7589 369.485 65.3984 369.221C66.0378 368.956 66.7231 368.821 67.415 368.821H167.166C167.858 368.821 168.543 368.956 169.182 369.221C169.822 369.485 170.403 369.873 170.892 370.362C171.382 370.851 171.77 371.431 172.035 372.071C172.3 372.71 172.436 373.395 172.436 374.087C172.436 375.485 171.881 376.825 170.893 377.814C169.904 378.802 168.563 379.358 167.166 379.358Z" fill="#66C9FF"/>
<path d="M46.1385 392.307C48.0619 392.307 49.9421 392.877 51.5413 393.946C53.1406 395.014 54.387 396.533 55.1231 398.31C55.8591 400.087 56.0517 402.042 55.6765 403.929C55.3013 405.815 54.3751 407.548 53.015 408.908C51.655 410.268 49.9222 411.194 48.0357 411.569C46.1493 411.945 44.1939 411.752 42.4169 411.016C40.6399 410.28 39.1211 409.034 38.0525 407.434C36.984 405.835 36.4136 403.955 36.4136 402.031C36.415 399.453 37.44 396.98 39.2635 395.156C41.087 393.333 43.5597 392.308 46.1385 392.307ZM46.1385 391.783C44.1116 391.783 42.1302 392.384 40.4448 393.51C38.7595 394.636 37.446 396.237 36.6703 398.11C35.8946 399.982 35.6917 402.043 36.0871 404.031C36.4826 406.019 37.4586 407.845 38.8919 409.278C40.3251 410.711 42.1512 411.687 44.1391 412.083C46.1271 412.478 48.1877 412.275 50.0603 411.5C51.933 410.724 53.5335 409.41 54.6596 407.725C55.7857 406.04 56.3868 404.058 56.3868 402.031C56.3868 399.313 55.307 396.707 53.3851 394.785C51.4632 392.863 48.8565 391.783 46.1385 391.783Z" fill="#66C9FF"/>
<path opacity="0.4" d="M53.5551 406.03C52.829 407.369 51.755 408.487 50.4464 409.266C49.1377 410.045 47.6431 410.456 46.1202 410.456C44.5972 410.456 43.1026 410.045 41.794 409.266C40.4853 408.487 39.4113 407.369 38.6852 406.03C40.887 404.563 43.474 403.779 46.1202 403.779C48.7663 403.779 51.3533 404.563 53.5551 406.03Z" fill="#66C9FF"/>
<path opacity="0.4" d="M46.1385 402.879C48.2198 402.879 49.907 401.192 49.907 399.111C49.907 397.03 48.2198 395.342 46.1385 395.342C44.0572 395.342 42.37 397.03 42.37 399.111C42.37 401.192 44.0572 402.879 46.1385 402.879Z" fill="#66C9FF"/>
<path opacity="0.4" d="M67.415 396.735H167.166C168.563 396.735 169.904 397.29 170.893 398.278C171.881 399.267 172.436 400.607 172.436 402.005C172.436 403.403 171.881 404.744 170.893 405.732C169.904 406.721 168.563 407.276 167.166 407.276H67.415C66.0171 407.276 64.6765 406.721 63.688 405.732C62.6996 404.744 62.1443 403.403 62.1443 402.005C62.1443 400.609 62.699 399.27 63.6865 398.282C64.674 397.295 66.0133 396.74 67.4097 396.74L67.415 396.735Z" fill="#66C9FF"/>
<path opacity="0.1" d="M142.597 407.119C142.596 410.321 142.91 413.515 143.534 416.655C140.607 418.394 138.181 420.862 136.494 423.819C134.807 426.776 133.916 430.12 133.908 433.525C133.898 435.079 134.074 436.629 134.432 438.141H177.498C178.368 438.138 179.203 437.791 179.819 437.175C180.435 436.56 180.782 435.725 180.785 434.854V359.484C169.955 361.906 160.273 367.943 153.332 376.601C146.391 385.259 142.605 396.022 142.597 407.119Z" fill="black"/>
<path d="M222.161 439.966C239.166 422.962 239.166 395.393 222.161 378.388C205.157 361.384 177.588 361.384 160.583 378.388C143.579 395.393 143.579 422.962 160.583 439.966C177.588 456.971 205.157 456.971 222.161 439.966Z" fill="#66C9FF"/>
<path d="M219.644 437.192C235.146 421.69 235.146 396.556 219.644 381.054C204.142 365.553 179.009 365.553 163.507 381.054C148.005 396.556 148.005 421.69 163.507 437.192C179.009 452.694 204.142 452.694 219.644 437.192Z" fill="white"/>
<path d="M178.183 382.493L175.65 385.738C175.65 385.738 173.425 387.423 172.583 388.878C171.599 389.852 170.698 390.851 169.809 391.904C168.789 393.106 167.838 394.366 166.961 395.677C166.001 397.079 165.207 398.588 164.596 400.173C164.208 401.177 163.994 402.239 163.962 403.314C163.948 404.074 164.084 404.83 164.36 405.538C164.707 406.406 165.28 407.165 166.019 407.737L166.574 408.155L167.406 408.312C169.049 408.624 170.717 408.789 172.389 408.804L173.049 408.747L172.368 402.11C171.808 402.11 170.604 402.22 170.055 402.209C170.055 402.105 170.097 402 170.123 401.895C170.454 400.632 170.91 399.405 171.484 398.231C172.07 396.96 172.745 395.688 173.446 394.421C174.064 393.301 174.729 392.176 175.372 391.077L178.513 389.098L180.35 385.837L178.183 382.493ZM170.013 403.167C170.008 403.117 170.008 403.066 170.013 403.015C170.035 403.053 170.051 403.093 170.06 403.136C170.076 403.261 170.039 403.267 170.013 403.167Z" fill="#FFC3BD"/>
<path d="M196.021 389.506C196.099 389.103 193.346 387.721 191.452 388.847C189.813 389.82 189.604 391.15 190.201 392.736C190.201 392.846 190.242 392.956 190.258 393.065C190.295 393.322 190.326 393.589 190.342 393.83C190.462 395.499 190.023 397.054 188.144 397.938C188.144 398.043 187.887 398.153 187.803 398.226C187.108 398.838 186.664 399.687 186.558 400.608C186.558 401.288 187.201 401.827 187.95 402.476L188.997 403.183L190.431 403.047C194.833 401.754 196.89 397.734 196.796 397.436C195.665 395.573 195.681 392.307 196.021 389.506Z" fill="#FFC3BD"/>
<path d="M205.536 399.043L204.741 398.907C203.694 398.739 199.025 397.682 196.769 397.483C196.246 398.598 194.529 401.32 190.127 402.613L189.039 402.869L187.992 402.346C187.668 402.112 187.399 401.812 187.202 401.465C187.005 401.118 186.885 400.733 186.851 400.336C186.886 399.927 187.006 399.53 187.203 399.17C187.399 398.809 187.668 398.494 187.992 398.242C188.03 398.209 188.06 398.168 188.081 398.122C188.081 397.996 188.081 397.912 188.081 397.902C187.751 397.944 183.574 398.577 183.224 398.635C179.286 399.362 175.421 400.436 171.672 401.843L171.714 402.22L172.473 408.81L172.755 411.306C172.755 411.306 174.849 411.071 177.597 410.589C176.848 417.257 176.702 426.919 178.989 439.34L187.924 439.172L203.448 438.885C203.511 437.838 203.396 435.671 203.286 432.708L203.144 428.134C203.061 424.093 203.076 419.236 203.437 414.044C203.495 413.222 203.563 412.395 203.636 411.558C206.808 414.986 209.985 418.262 209.985 418.262L211.487 416.818C213.408 415.891 214.921 414.232 216.24 412.238L218.004 410.537C218.004 410.537 209.828 399.765 205.536 399.043Z" fill="#66C9FF"/>
<path opacity="0.3" d="M201.239 408.867C201.359 409.957 201.707 411.009 202.26 411.955L203.464 414.017C203.521 413.196 203.589 412.369 203.663 411.531C202.836 410.626 202.009 409.731 201.239 408.867Z" fill="black"/>
<path opacity="0.3" d="M203.668 411.536C203.595 412.374 203.527 413.201 203.469 414.023C203.521 413.201 203.595 412.369 203.668 411.536Z" fill="black"/>
<path d="M190.201 392.736C190.201 392.846 190.237 392.956 190.258 393.066C190.258 392.956 190.222 392.846 190.201 392.736Z" fill="#FFC3BD"/>
<path opacity="0.2" d="M190.342 393.83C190.342 393.578 190.295 393.306 190.258 393.066C190.295 393.322 190.326 393.578 190.342 393.83Z" fill="black"/>
<path d="M193.597 391.495C193.493 391.569 193.393 391.647 193.283 391.72C192.368 392.334 191.302 392.685 190.201 392.736C190.201 392.846 190.237 392.956 190.258 393.066C190.295 393.322 190.326 393.589 190.342 393.83C190.342 393.83 190.342 393.861 190.342 393.877C191.7 393.546 192.871 392.689 193.597 391.495Z" fill="#FFC3BD"/>
<path d="M199.475 398.279C199.429 398.064 199.323 397.866 199.169 397.709C199.016 397.551 198.82 397.44 198.606 397.389L197.518 397.127C197.382 397.095 197.239 397.108 197.111 397.164C196.982 397.219 196.876 397.315 196.806 397.436L196.769 397.483C196.246 398.598 194.529 401.32 190.127 402.613L189.787 402.691L189.039 402.869L187.992 402.346C187.668 402.112 187.399 401.812 187.202 401.465C187.005 401.118 186.885 400.733 186.851 400.336C186.887 399.927 187.006 399.53 187.203 399.17C187.399 398.81 187.668 398.494 187.992 398.242C188.049 398.183 188.1 398.118 188.144 398.048C188.191 397.928 188.18 397.871 188.096 397.818C186.94 396.986 184.354 398.268 184.249 398.488C184.14 398.598 184.03 398.713 183.92 398.844C183.597 399.224 183.356 399.667 183.212 400.144C183.068 400.621 183.024 401.123 183.082 401.618C183.191 402.451 183.487 403.248 183.946 403.951C184.405 404.655 185.017 405.245 185.736 405.68C185.76 405.687 185.785 405.687 185.809 405.68C185.837 405.688 185.866 405.688 185.893 405.68C185.916 405.664 185.934 405.643 185.947 405.618C185.96 405.593 185.966 405.566 185.966 405.538C185.968 404.92 186.153 404.315 186.498 403.801C186.843 403.287 187.331 402.886 187.903 402.649L188.819 403.141C184.883 419.294 187.552 438.654 187.625 439.178H187.929C187.929 438.979 185.155 419.451 189.122 403.209L190.08 402.979C191.195 404.34 190.666 406.36 190.661 406.381C190.654 406.409 190.654 406.439 190.663 406.466C190.671 406.494 190.687 406.519 190.708 406.538C190.738 406.562 190.775 406.575 190.813 406.575C190.832 406.58 190.852 406.58 190.871 406.575C191.08 406.481 196.031 404.314 197.764 402.246C198.582 401.258 199.159 400.093 199.449 398.844C199.507 398.661 199.516 398.466 199.475 398.279Z" fill="white"/>
<path opacity="0.2" d="M193.597 391.495C193.493 391.569 193.393 391.647 193.283 391.72C192.368 392.334 191.302 392.685 190.201 392.736C190.201 392.846 190.237 392.956 190.258 393.066C190.295 393.322 190.326 393.589 190.342 393.83C190.342 393.83 190.342 393.861 190.342 393.877C191.7 393.546 192.871 392.689 193.597 391.495Z" fill="black"/>
<path d="M187.133 379.938C189.18 377.321 187.882 375.751 187.013 375.898C186.191 376.285 185.411 377.379 185.008 379.829C184.912 380.406 184.898 380.995 184.967 381.577C185.809 381.535 187.133 379.938 187.133 379.938Z" fill="#263238"/>
<path d="M195.712 385.712C201.381 375.741 190.185 374.579 187.903 376.814C187.133 377.528 186.484 378.362 185.982 379.284L185.506 380.221C185.308 380.664 185.134 381.116 184.982 381.577C184.406 383.232 184.106 384.97 184.092 386.722C184.089 387.522 184.245 388.315 184.553 389.053C184.861 389.792 185.314 390.461 185.885 391.022C186.456 391.582 187.133 392.023 187.877 392.317C188.621 392.612 189.416 392.754 190.216 392.736C191.317 392.685 192.383 392.334 193.299 391.721C193.409 391.647 193.509 391.569 193.613 391.495C194.361 390.963 194.999 390.291 195.492 389.517C196.654 387.638 196.351 386.691 195.712 385.712Z" fill="#FFC3BD"/>
<path d="M185.218 379.912C185.183 379.958 185.168 380.015 185.175 380.072C185.181 380.128 185.21 380.18 185.254 380.216C185.293 380.246 185.341 380.263 185.39 380.263C185.432 380.262 185.473 380.247 185.506 380.221C185.526 380.212 185.544 380.198 185.558 380.179C185.725 379.958 185.941 379.779 186.189 379.654C186.437 379.53 186.71 379.464 186.987 379.462C187.044 379.465 187.101 379.445 187.144 379.407C187.187 379.369 187.213 379.315 187.217 379.258C187.219 379.23 187.216 379.202 187.207 379.175C187.198 379.148 187.184 379.123 187.166 379.102C187.147 379.08 187.125 379.063 187.099 379.05C187.074 379.037 187.046 379.03 187.018 379.028C186.654 379.025 186.294 379.114 185.971 379.284C185.68 379.439 185.423 379.653 185.218 379.912Z" fill="#263238"/>
<path d="M190.881 386.183C190.861 386.163 190.833 386.152 190.805 386.152C190.777 386.152 190.75 386.163 190.729 386.183C190.371 386.483 189.949 386.697 189.496 386.81C189.042 386.922 188.569 386.93 188.112 386.832C188.085 386.827 188.056 386.833 188.033 386.849C188.009 386.864 187.993 386.888 187.987 386.916C187.982 386.944 187.988 386.973 188.003 386.997C188.019 387.021 188.043 387.039 188.07 387.046C188.32 387.096 188.575 387.119 188.829 387.114C189.579 387.107 190.301 386.833 190.865 386.34C190.877 386.331 190.886 386.319 190.893 386.306C190.901 386.293 190.905 386.279 190.906 386.265C190.908 386.25 190.906 386.235 190.902 386.221C190.898 386.207 190.89 386.194 190.881 386.183Z" fill="#263238"/>
<path d="M188.07 382.446C187.377 383.46 186.552 384.377 185.616 385.173C186.139 385.895 187.27 385.843 187.27 385.843L188.07 382.446Z" fill="#ED847E"/>
<path d="M186.217 382.571C186.453 382.618 186.741 382.367 186.798 382.006C186.856 381.645 186.762 381.32 186.526 381.273C186.291 381.226 186.029 381.477 185.945 381.838C185.862 382.2 185.977 382.524 186.217 382.571Z" fill="#263238"/>
<path d="M190.31 383.409C190.546 383.456 190.802 383.205 190.891 382.843C190.98 382.482 190.85 382.158 190.614 382.111C190.379 382.064 190.117 382.315 190.033 382.676C189.949 383.037 190.07 383.341 190.31 383.409Z" fill="#263238"/>
<path d="M199.297 377.704C201.511 375.809 196.466 371.946 196.466 371.946C196.466 371.946 197.031 373.328 195.859 373.71C194.686 374.092 186.437 371.015 186.558 374.506C186.58 374.998 186.738 375.474 187.013 375.882C187.258 376.233 187.559 376.543 187.903 376.798C189.818 378.253 193.304 378.698 195.189 378.698C194.89 379.427 194.68 380.19 194.566 380.97C194.421 381.791 194.449 382.634 194.646 383.445C194.843 384.256 195.206 385.017 195.712 385.68C196.759 387.502 198.156 387.449 199.35 386.062C201.265 384.251 203.113 380.582 199.297 377.704Z" fill="#263238"/>
<path d="M198.334 385.016C197.465 384.66 196.487 385.078 195.717 385.712C195.295 386.047 194.929 386.449 194.634 386.9C193.896 388.057 194.158 389.402 195.482 389.517H195.712H196.026C197.069 389.411 198.043 388.949 198.784 388.208C199.059 387.943 199.257 387.609 199.358 387.24C199.458 386.872 199.457 386.483 199.355 386.115C199.28 385.866 199.149 385.637 198.972 385.447C198.795 385.256 198.577 385.109 198.334 385.016Z" fill="#FFC3BD"/>
<path d="M179.015 439.314C179.015 439.314 178.874 440.538 178.654 442.595C186.67 445.306 195.341 445.387 203.406 442.826C203.458 440.339 203.495 438.853 203.495 438.853L187.95 439.146H187.646L179.015 439.314Z" fill="#263238"/>
<path d="M219.475 418.236C219.43 417.791 219.328 417.352 219.171 416.933C219.096 416.725 219.007 416.522 218.904 416.326L218.752 416.043L218.669 415.897C217.92 414.609 217.098 413.39 216.261 412.233L211.508 416.813C212.137 417.598 212.749 418.383 213.314 419.189C213.209 419.456 213.074 419.711 212.911 419.948C212.15 421.005 211.272 421.972 210.294 422.832C208.244 424.678 206.097 426.413 203.861 428.029L203.134 428.123L200.213 428.521L197.34 430.463L199.229 434.305L201.606 433.09C202.173 433.012 202.732 432.881 203.275 432.698C204.115 432.479 204.846 431.962 205.332 431.243C206.722 430.692 208.083 430.07 209.41 429.38C210.835 428.644 212.216 427.824 213.544 426.925C214.218 426.464 214.884 425.96 215.544 425.412C216.244 424.837 216.892 424.201 217.48 423.512C218.234 422.661 218.813 421.67 219.187 420.597C219.45 419.84 219.548 419.035 219.475 418.236ZM213.356 419.063C213.356 419.037 213.356 419.006 213.356 418.985C213.356 418.859 213.403 418.812 213.403 418.885C213.401 418.946 213.388 419.006 213.367 419.063H213.356Z" fill="#FFC3BD"/>
<path d="M167.701 433.71C168.973 425.878 163.654 418.498 155.822 417.227C147.989 415.955 140.609 421.274 139.338 429.106C138.066 436.939 143.385 444.319 151.218 445.59C159.05 446.862 166.43 441.543 167.701 433.71Z" fill="#263238"/>
<path d="M161.408 430.055H154.855V423.502C154.855 423.145 154.713 422.803 154.461 422.55C154.209 422.298 153.867 422.156 153.51 422.156C153.153 422.156 152.811 422.298 152.559 422.55C152.306 422.803 152.165 423.145 152.165 423.502V430.055H145.612C145.255 430.055 144.913 430.196 144.661 430.449C144.408 430.701 144.267 431.043 144.267 431.4C144.267 431.756 144.408 432.099 144.661 432.351C144.913 432.603 145.255 432.745 145.612 432.745H152.165V439.298C152.165 439.475 152.2 439.649 152.267 439.813C152.335 439.976 152.434 440.124 152.559 440.249C152.684 440.374 152.832 440.473 152.995 440.541C153.158 440.608 153.333 440.643 153.51 440.643C153.687 440.643 153.861 440.608 154.025 440.541C154.188 440.473 154.336 440.374 154.461 440.249C154.586 440.124 154.685 439.976 154.753 439.813C154.82 439.649 154.855 439.475 154.855 439.298V432.745H161.408C161.765 432.745 162.107 432.603 162.359 432.351C162.611 432.099 162.753 431.756 162.753 431.4C162.753 431.043 162.611 430.701 162.359 430.449C162.107 430.196 161.765 430.055 161.408 430.055Z" fill="white"/>
<path d="M191.09 380.666C191.353 380.719 191.599 380.836 191.807 381.006C192.015 381.175 192.179 381.393 192.284 381.64C192.302 381.677 192.33 381.709 192.365 381.731C192.4 381.754 192.441 381.765 192.483 381.765C192.512 381.773 192.542 381.773 192.572 381.765C192.598 381.753 192.621 381.737 192.64 381.716C192.66 381.695 192.675 381.67 192.684 381.643C192.694 381.617 192.698 381.588 192.697 381.56C192.696 381.531 192.689 381.503 192.676 381.477C192.54 381.165 192.33 380.891 192.063 380.678C191.797 380.466 191.483 380.321 191.148 380.258C191.091 380.25 191.033 380.266 190.988 380.3C190.942 380.335 190.912 380.387 190.905 380.444C190.897 380.501 190.912 380.558 190.947 380.604C190.982 380.65 191.033 380.679 191.09 380.687V380.666Z" fill="#263238"/>
</svg>
