<svg width="72" height="72" viewBox="0 0 72 72" fill="none" xmlns="http://www.w3.org/2000/svg">
<path fill-rule="evenodd" clip-rule="evenodd" d="M43.5017 14.0267C39.2834 8.08043 30.7645 7.27637 25.508 12.3284C24.3687 13.4234 23.4583 14.7339 22.8297 16.1838L20.8476 20.7557C19.9181 22.8997 17.9435 24.4085 15.6306 24.7419C10.1028 25.5388 6 30.2756 6 35.8605V37.2097C6 44.5034 11.9128 50.4162 19.2065 50.4162H26.25C27.4926 50.4162 28.5 49.4088 28.5 48.1662C28.5 46.9235 27.4926 45.9162 26.25 45.9162H19.2065C14.398 45.9162 10.5 42.0181 10.5 37.2097V35.8605C10.5 32.5128 12.9593 29.6736 16.2727 29.1959C20.1313 28.6396 23.4257 26.1225 24.9763 22.5456L26.9584 17.9737C27.3498 17.0708 27.9168 16.2547 28.6263 15.5728C31.8996 12.4268 37.2046 12.9275 39.8315 16.6305L44.4607 23.1558C46.8403 26.5101 50.6978 28.5031 54.8104 28.5031C59.3334 28.5031 63 32.1697 63 36.6927V37.2097C63 42.0181 59.102 45.9162 54.2935 45.9162H47.25C46.0074 45.9162 45 46.9235 45 48.1662C45 49.4088 46.0074 50.4162 47.25 50.4162H54.2935C61.5872 50.4162 67.5 44.5034 67.5 37.2097V36.6927C67.5 29.6844 61.8187 24.0031 54.8104 24.0031C52.1562 24.0031 49.6667 22.7168 48.1309 20.5521L43.5017 14.0267ZM25.2797 36.6014C24.4792 35.8043 24.4041 34.5544 25.0558 33.6723L25.2731 33.4195L34.0211 24.6355C34.8206 23.8327 36.0748 23.7597 36.957 24.4165L36.9658 24.4242C37.0498 24.4873 37.1291 24.5561 37.2033 24.63L37.2096 24.6355L45.9576 33.4195C46.8345 34.3 46.8316 35.7246 45.9511 36.6014C45.1507 37.3986 43.9005 37.4687 43.021 36.8133L42.7691 36.5949L37.8654 31.6746L37.8654 62.347C37.8654 63.5897 36.858 64.597 35.6154 64.597C34.4763 64.597 33.5349 63.7506 33.3859 62.6523L33.3654 62.347L33.3654 31.6729L28.4616 36.5949C27.6645 37.3953 26.4146 37.4705 25.5325 36.8188L25.2797 36.6014Z" fill="#66C9FF"/>
</svg>
