<svg width="820" height="618" viewBox="0 0 820 618" fill="none" xmlns="http://www.w3.org/2000/svg">
<path opacity="0.9" d="M321.59 142.756C355.065 174.621 401.328 190.778 448.057 196.119C672.209 204.231 749.957 493.043 478.412 490.007C341.297 492.429 259.286 422.777 186.465 342.756C32.3962 188.057 150.668 74.0319 202.854 62.7522C254.791 52.534 288.53 112.897 321.59 142.756Z" fill="#D7E3FF"/>
<path d="M475.676 501.536H252.137C246.791 501.469 241.671 499.378 237.807 495.684C233.944 491.989 231.625 486.967 231.319 481.631L212.757 77.9633C212.619 75.3899 213.009 72.8155 213.902 70.3984C214.796 67.9813 216.175 65.7726 217.954 63.9081C219.733 62.0436 221.875 60.5628 224.247 59.5567C226.62 58.5506 229.173 58.0405 231.75 58.0578H455.322C460.656 58.1412 465.76 60.2401 469.61 63.9326C473.459 67.6252 475.768 72.6378 476.074 77.9633L494.602 481.597C494.745 484.168 494.36 486.74 493.473 489.157C492.585 491.573 491.213 493.783 489.441 495.65C487.668 497.517 485.533 499.002 483.166 500.015C480.799 501.027 478.25 501.545 475.676 501.536Z" fill="#263238"/>
<path d="M322.635 51.1074H288.912V52.7662H322.635V51.1074Z" fill="#407BFF"/>
<path d="M277.848 51.1074H268.774V52.7662H277.848V51.1074Z" fill="#407BFF"/>
<path d="M478.014 500.375H254.459C249.114 500.308 243.993 498.217 240.129 494.522C236.266 490.828 233.947 485.806 233.641 480.469L215.112 76.8187C214.974 74.2453 215.364 71.6709 216.258 69.2538C217.152 66.8367 218.53 64.628 220.309 62.7635C222.088 60.899 224.23 59.4182 226.603 58.4121C228.975 57.406 231.528 56.8959 234.105 56.9132H457.661C463.006 56.98 468.127 59.0715 471.99 62.7657C475.854 66.4599 478.173 71.482 478.479 76.8187L497.008 480.469C497.146 483.043 496.756 485.617 495.862 488.034C494.968 490.451 493.59 492.66 491.811 494.525C490.031 496.389 487.89 497.87 485.517 498.876C483.145 499.882 480.591 500.392 478.014 500.375Z" fill="#407BFF"/>
<path d="M254.077 492.081C250.957 492.052 247.964 490.835 245.708 488.678C243.453 486.521 242.104 483.586 241.935 480.469L223.406 76.8187C223.32 75.3175 223.543 73.8145 224.061 72.4029C224.579 70.9914 225.382 69.7013 226.419 68.6127C227.457 67.524 228.706 66.66 230.091 66.0742C231.476 65.4884 232.967 65.1933 234.47 65.2071H458.043C461.163 65.2363 464.156 66.4532 466.411 68.6101C468.667 70.7671 470.016 73.7023 470.185 76.8187L488.714 480.469C488.798 481.97 488.573 483.472 488.054 484.882C487.535 486.293 486.732 487.582 485.695 488.67C484.658 489.758 483.409 490.622 482.026 491.209C480.642 491.796 479.152 492.092 477.65 492.081H254.077Z" fill="white"/>
<path d="M349.657 169.678C339.459 169.571 329.683 165.591 322.312 158.543C314.941 151.495 310.526 141.908 309.962 131.725C309.69 126.81 310.428 121.891 312.131 117.273C313.835 112.654 316.466 108.434 319.865 104.872C323.263 101.311 327.355 98.484 331.889 96.5662C336.422 94.6483 341.301 93.6803 346.223 93.7218C356.42 93.8323 366.193 97.8143 373.564 104.861C380.934 111.908 385.351 121.494 385.918 131.675C386.195 136.591 385.461 141.512 383.759 146.133C382.058 150.753 379.426 154.976 376.027 158.538C372.628 162.1 368.533 164.927 363.997 166.843C359.462 168.76 354.581 169.724 349.657 169.678ZM346.223 94.9161C341.463 94.8771 336.745 95.8143 332.36 97.6699C327.976 99.5255 324.019 102.26 320.733 105.705C317.447 109.149 314.901 113.231 313.254 117.698C311.607 122.165 310.893 126.922 311.156 131.675C311.703 141.551 315.986 150.85 323.135 157.685C330.285 164.52 339.766 168.381 349.657 168.484C354.418 168.523 359.136 167.585 363.52 165.73C367.904 163.874 371.861 161.14 375.148 157.695C378.434 154.25 380.979 150.169 382.626 145.702C384.273 141.235 384.987 136.478 384.724 131.725C384.177 121.849 379.895 112.55 372.745 105.715C365.596 98.8794 356.114 95.0189 346.223 94.9161Z" fill="#E0E0E0"/>
<path d="M321.159 157.784H324.991C324.503 158.322 324.126 158.95 323.881 159.633C323.637 160.316 323.529 161.041 323.564 161.765C323.648 163.328 324.325 164.8 325.456 165.882C326.587 166.963 328.087 167.573 329.652 167.588C330.407 167.596 331.155 167.449 331.85 167.156C332.546 166.862 333.174 166.429 333.695 165.883C334.216 165.337 334.619 164.69 334.88 163.982C335.14 163.273 335.252 162.519 335.209 161.765C335.118 160.264 334.481 158.848 333.417 157.784H364.935C363.956 158.872 363.449 160.304 363.525 161.765C363.609 163.328 364.285 164.8 365.416 165.882C366.547 166.963 368.048 167.573 369.612 167.588C370.366 167.594 371.112 167.445 371.806 167.151C372.499 166.856 373.125 166.423 373.644 165.877C374.163 165.331 374.565 164.685 374.825 163.978C375.084 163.271 375.196 162.518 375.153 161.765C375.076 160.264 374.443 158.845 373.378 157.784H377.193L377.027 154.118H320.993L321.159 157.784Z" fill="#407BFF"/>
<path d="M391.359 106.544H383.911H378.935H309.663L322.702 148.379H374.721L383.098 110.21H391.525L391.359 106.544Z" fill="#407BFF"/>
<path d="M353.207 397.629H264.096C263.95 397.629 263.809 397.572 263.703 397.47C263.598 397.368 263.537 397.229 263.532 397.082L259.435 307.972C259.433 307.82 259.487 307.673 259.585 307.557C259.639 307.503 259.704 307.461 259.775 307.432C259.846 307.404 259.923 307.39 259.999 307.391H349.11C349.254 307.391 349.392 307.446 349.497 307.544C349.602 307.643 349.665 307.778 349.674 307.922L353.771 397.032C353.774 397.109 353.761 397.186 353.732 397.257C353.704 397.329 353.66 397.393 353.605 397.447C353.555 397.504 353.494 397.55 353.426 397.581C353.357 397.612 353.282 397.629 353.207 397.629ZM264.627 396.501H352.543L348.512 308.585H260.596L264.627 396.501Z" fill="#E0E0E0"/>
<path d="M324.311 320.578H285.959C285.836 320.576 285.714 320.599 285.6 320.646C285.486 320.693 285.382 320.763 285.297 320.852C285.211 320.941 285.145 321.046 285.102 321.162C285.059 321.277 285.04 321.401 285.047 321.524L285.163 324.045L286.026 342.856L287.867 382.8C287.867 383.24 288.042 383.662 288.353 383.973C288.664 384.284 289.086 384.458 289.526 384.458H302.448C302.65 384.461 302.851 384.423 303.039 384.347C303.227 384.272 303.399 384.16 303.543 384.018C303.688 383.877 303.804 383.708 303.883 383.521C303.963 383.335 304.005 383.135 304.007 382.932L304.853 342.873H307.358L311.886 382.932C311.92 383.349 312.109 383.738 312.417 384.02C312.724 384.303 313.127 384.46 313.545 384.458H326.484C326.697 384.459 326.908 384.416 327.104 384.331C327.3 384.247 327.477 384.123 327.623 383.967C327.769 383.812 327.882 383.628 327.954 383.427C328.026 383.226 328.057 383.013 328.043 382.8L326.202 342.856L325.339 324.045L325.223 321.524C325.212 321.282 325.113 321.053 324.945 320.879C324.777 320.705 324.552 320.598 324.311 320.578Z" fill="#E0E0E0"/>
<path d="M458.905 397.629H369.795C369.648 397.629 369.507 397.572 369.402 397.47C369.296 397.368 369.235 397.229 369.231 397.082L365.134 307.972C365.132 307.82 365.185 307.673 365.283 307.557C365.338 307.503 365.402 307.461 365.474 307.432C365.545 307.404 365.621 307.39 365.698 307.391H454.808C454.952 307.391 455.091 307.446 455.195 307.544C455.3 307.643 455.363 307.778 455.372 307.922L459.486 397.032C459.489 397.109 459.476 397.186 459.447 397.257C459.418 397.329 459.375 397.393 459.32 397.447C459.268 397.506 459.205 397.553 459.133 397.585C459.061 397.616 458.983 397.631 458.905 397.629ZM370.326 396.501H458.242L454.211 308.585H366.295L370.326 396.501Z" fill="#E0E0E0"/>
<path d="M433.642 385.57H393.997L391.127 322.917H430.755L433.642 385.57Z" fill="#E0E0E0"/>
<path d="M384.359 353.058L375.534 335.607L391.127 322.917L399.769 336.387L384.359 353.058Z" fill="#E0E0E0"/>
<path d="M440.293 353.058L447.526 335.607L430.755 322.917L423.357 336.387L440.293 353.058Z" fill="#E0E0E0"/>
<path d="M401.163 322.917C401.306 325.544 402.443 328.017 404.344 329.835C406.245 331.653 408.767 332.679 411.397 332.704C412.666 332.718 413.923 332.47 415.092 331.977C416.261 331.484 417.316 330.756 418.192 329.839C419.068 328.921 419.745 327.833 420.183 326.642C420.621 325.452 420.809 324.184 420.736 322.917H401.163Z" fill="#EBEBEB"/>
<path d="M454.045 292.196H364.935C364.72 292.197 364.514 292.114 364.359 291.965C364.205 291.817 364.114 291.614 364.105 291.4L359.958 202.373C359.951 202.261 359.966 202.149 360.003 202.044C360.04 201.938 360.098 201.842 360.174 201.759C360.253 201.676 360.348 201.61 360.454 201.564C360.559 201.519 360.673 201.495 360.788 201.494H449.898C450.112 201.493 450.318 201.576 450.473 201.725C450.628 201.873 450.719 202.076 450.727 202.29L454.808 291.4C454.815 291.512 454.8 291.624 454.763 291.729C454.726 291.835 454.668 291.931 454.592 292.014C454.436 292.136 454.243 292.2 454.045 292.196ZM365.731 290.538H453.182L449.168 203.069H361.716L365.731 290.538Z" fill="#407BFF"/>
<path d="M435.964 237.042L426.293 236.328L426.509 235.598C426.683 234.974 426.71 234.317 426.588 233.68C426.466 233.043 426.199 232.443 425.807 231.926C425.416 231.409 424.91 230.989 424.33 230.7C423.749 230.41 423.11 230.259 422.461 230.257H412.409C411.758 230.255 411.117 230.419 410.547 230.732C409.976 231.045 409.494 231.498 409.146 232.048C408.798 232.598 408.595 233.228 408.557 233.878C408.518 234.528 408.645 235.177 408.926 235.764L410.17 238.584L409.34 238.8L407.035 239.414L403.186 240.409L400.881 241.006L397.049 242.001L394.743 242.598L385.222 245.087C381.274 246.215 377.956 248.587 378.155 252.75C378.28 254.834 379.186 256.794 380.693 258.24C382.2 259.685 384.196 260.509 386.283 260.547H432.945C433.804 260.558 434.655 260.391 435.446 260.057C436.237 259.723 436.95 259.228 437.541 258.605C438.131 257.982 438.586 257.243 438.877 256.435C439.169 255.627 439.289 254.768 439.232 253.911L438.585 239.745C438.537 239.058 438.248 238.409 437.769 237.914C437.289 237.42 436.65 237.11 435.964 237.042Z" fill="#407BFF"/>
<path opacity="0.3" d="M415.312 241.686L413.04 242.3L407.035 239.414L409.357 238.8L415.312 241.686Z" fill="white"/>
<path opacity="0.3" d="M409.241 243.328L406.968 243.942L400.881 241.006L403.186 240.409L409.241 243.328Z" fill="white"/>
<path opacity="0.3" d="M403.17 244.971L400.897 245.584L394.743 242.598L397.049 242.001L403.17 244.971Z" fill="white"/>
<path opacity="0.3" d="M439.132 250.063L439.298 253.961C439.356 254.818 439.235 255.677 438.944 256.485C438.653 257.293 438.198 258.032 437.607 258.655C437.017 259.278 436.303 259.772 435.512 260.107C434.721 260.441 433.87 260.607 433.011 260.596H425.281C425.678 257.64 427.141 254.931 429.396 252.979C431.651 251.027 434.541 249.966 437.523 249.997C438.061 249.985 438.598 250.007 439.132 250.063Z" fill="white"/>
<path d="M348.347 291.948H259.236C259.091 291.944 258.952 291.885 258.847 291.784C258.743 291.682 258.68 291.545 258.672 291.4L254.575 202.29C254.574 202.213 254.588 202.137 254.616 202.066C254.645 201.995 254.687 201.93 254.741 201.875C254.79 201.818 254.852 201.772 254.92 201.741C254.989 201.709 255.063 201.693 255.139 201.693H344.266C344.411 201.697 344.55 201.755 344.655 201.856C344.759 201.958 344.822 202.095 344.83 202.24L348.911 291.35C348.915 291.426 348.904 291.502 348.878 291.573C348.852 291.644 348.813 291.71 348.761 291.765C348.652 291.878 348.503 291.944 348.347 291.948ZM259.784 290.82H347.7L343.652 202.821H255.736L259.784 290.82Z" fill="#E0E0E0"/>
<path d="M333.417 232.032L333.766 239.43C333.816 240.186 333.698 240.944 333.421 241.648C333.144 242.353 332.713 242.988 332.161 243.507C331.609 244.025 330.949 244.415 330.229 244.648C329.508 244.881 328.744 244.952 327.993 244.854C327.349 244.774 326.701 244.736 326.052 244.738C323.981 244.729 321.933 245.188 320.064 246.082C317.7 247.247 315.73 249.079 314.397 251.352C313.065 253.626 312.428 256.24 312.566 258.871V259.22C312.636 260.595 312.32 261.962 311.654 263.168C311.021 264.288 310.099 265.219 308.985 265.864C307.871 266.508 306.605 266.843 305.317 266.833H300.109C298.786 266.821 297.486 266.479 296.328 265.839C295.17 265.199 294.189 264.281 293.474 263.168C292.696 261.991 292.249 260.628 292.18 259.22V258.871C292.043 256.003 291.062 253.239 289.36 250.926C287.842 248.842 285.822 247.176 283.488 246.082C281.58 245.197 279.503 244.738 277.4 244.738C276.751 244.735 276.103 244.774 275.459 244.854C274.687 244.934 273.906 244.855 273.165 244.622C272.424 244.389 271.739 244.006 271.151 243.498C270.564 242.99 270.087 242.367 269.749 241.667C269.412 240.968 269.221 240.206 269.189 239.43L268.857 232.032C268.837 231.723 268.88 231.413 268.986 231.121C269.091 230.83 269.256 230.563 269.469 230.339C269.683 230.114 269.941 229.937 270.226 229.817C270.512 229.697 270.82 229.638 271.13 229.643H330.946C331.584 229.655 332.193 229.908 332.652 230.351C333.11 230.794 333.384 231.395 333.417 232.032Z" fill="#E0E0E0"/>
<path d="M311.604 263.167C310.971 264.288 310.05 265.219 308.935 265.864C307.821 266.508 306.555 266.843 305.268 266.833H300.059C298.736 266.821 297.437 266.479 296.278 265.839C295.12 265.199 294.139 264.281 293.424 263.167C294.072 261.356 295.269 259.791 296.847 258.691C298.426 257.591 300.308 257.011 302.232 257.03C304.217 257.052 306.154 257.641 307.815 258.729C309.476 259.817 310.791 261.357 311.604 263.167Z" fill="#EBEBEB"/>
<path d="M399.106 470.882H330.664C326.787 470.837 323.072 469.322 320.27 466.643C317.467 463.964 315.787 460.321 315.569 456.45L314.673 437.208C314.574 435.341 314.857 433.472 315.506 431.718C316.155 429.964 317.155 428.361 318.446 427.008C319.737 425.655 321.291 424.58 323.013 423.85C324.735 423.119 326.587 422.748 328.458 422.76H396.899C400.778 422.808 404.493 424.327 407.295 427.009C410.097 429.691 411.776 433.336 411.994 437.208L412.89 456.45C412.99 458.317 412.706 460.184 412.057 461.937C411.408 463.691 410.407 465.292 409.116 466.644C407.825 467.996 406.271 469.069 404.549 469.798C402.828 470.527 400.975 470.896 399.106 470.882Z" fill="#407BFF"/>
<path d="M330.996 436.561H342.607C344.249 436.462 345.868 436.977 347.152 438.004C347.674 438.449 348.098 438.997 348.397 439.614C348.697 440.23 348.866 440.902 348.894 441.587C348.969 442.697 348.62 443.795 347.915 444.656C347.34 445.285 346.607 445.749 345.792 446C347.065 446.225 348.23 446.86 349.11 447.808C349.867 448.703 350.284 449.837 350.287 451.009C350.352 451.986 350.146 452.962 349.69 453.829C349.249 454.655 348.589 455.344 347.783 455.82C347.051 456.182 346.257 456.401 345.444 456.467C344.521 456.616 343.591 456.71 342.657 456.749H331.925L330.996 436.561ZM337.631 444.474H340.351C341.058 444.549 341.769 444.373 342.358 443.976C342.547 443.786 342.689 443.557 342.776 443.304C342.862 443.051 342.889 442.781 342.856 442.516C342.859 442.254 342.804 441.995 342.695 441.757C342.586 441.519 342.426 441.308 342.226 441.139C341.632 440.753 340.924 440.577 340.218 440.642H337.465L337.631 444.474ZM337.996 452.403H341.181C341.975 452.484 342.774 452.285 343.437 451.839C343.645 451.644 343.807 451.403 343.907 451.135C344.008 450.868 344.046 450.58 344.017 450.296C344.014 450.02 343.948 449.748 343.825 449.501C343.701 449.253 343.523 449.038 343.304 448.869C342.609 448.441 341.794 448.249 340.982 448.322H337.813L337.996 452.403Z" fill="white"/>
<path d="M365.333 436.561H371.57L372.134 448.587C372.183 449.709 372.043 450.83 371.719 451.905C371.395 452.947 370.826 453.897 370.06 454.675C369.387 455.402 368.559 455.969 367.638 456.334C366.242 456.818 364.77 457.048 363.292 457.014C362.216 457.011 361.141 456.939 360.074 456.798C359.049 456.71 358.048 456.435 357.122 455.986C356.284 455.541 355.531 454.951 354.899 454.244C354.268 453.574 353.777 452.784 353.456 451.922C353.061 450.82 352.815 449.671 352.726 448.504L352.178 436.478H358.399L358.963 448.786C358.956 449.753 359.332 450.683 360.008 451.374C360.353 451.692 360.759 451.938 361.2 452.097C361.641 452.257 362.11 452.327 362.579 452.303C363.034 452.33 363.49 452.263 363.918 452.106C364.346 451.949 364.737 451.706 365.067 451.391C365.372 451.035 365.6 450.62 365.737 450.172C365.874 449.724 365.917 449.252 365.863 448.786L365.333 436.561Z" fill="white"/>
<path d="M373.66 436.561H380.577L384.956 443.362L388.722 436.561H395.622L388.307 448.289L388.705 456.749H382.451L382.053 448.289L373.66 436.561Z" fill="white"/>
<path d="M567.987 226.06C569.646 228.067 570.89 229.842 572.217 231.767C573.544 233.691 574.755 235.598 575.966 237.539C578.379 241.462 580.594 245.503 582.601 249.648C583.613 251.705 584.542 253.812 585.454 255.935C586.367 258.058 587.113 260.215 587.909 262.421C589.45 266.812 590.696 271.301 591.642 275.857V276.172C591.74 276.596 591.774 277.033 591.741 277.466C591.5 280.953 591.079 284.424 590.481 287.867C589.9 291.284 589.137 294.651 588.241 297.969C587.345 301.287 586.3 304.604 585.156 307.739C583.981 310.976 582.635 314.149 581.125 317.244C580.754 318.018 580.111 318.627 579.319 318.956C578.527 319.285 577.641 319.31 576.832 319.027C576.022 318.743 575.346 318.171 574.932 317.42C574.518 316.668 574.396 315.791 574.589 314.955V314.806C575.253 311.77 575.933 308.552 576.447 305.4C576.961 302.249 577.509 299.064 577.874 295.896C578.239 292.727 578.57 289.592 578.786 286.457C579.002 283.322 579.035 280.203 579.051 277.118L579.217 278.777C578.123 274.836 576.81 270.96 575.286 267.165C573.727 263.35 571.968 259.585 570.111 255.902C568.253 252.22 566.13 248.587 563.923 245.054C562.812 243.295 561.701 241.537 560.523 239.828C559.345 238.12 558.118 236.361 557.039 234.852L556.89 234.669C555.751 233.202 555.241 231.343 555.472 229.499C555.704 227.656 556.659 225.981 558.126 224.841C559.593 223.702 561.453 223.192 563.296 223.424C565.139 223.655 566.815 224.61 567.954 226.077L567.987 226.06Z" fill="#FF8B7B"/>
<path d="M576.414 311.72L568.021 322.718L581.938 322.055C581.938 322.055 585.803 314.142 582.469 309.514L576.414 311.72Z" fill="#FF8B7B"/>
<path d="M568.153 334.247L579.781 333.052L581.938 322.055L568.021 322.718L568.153 334.247Z" fill="#FF8B7B"/>
<path d="M544.93 193.332C543.603 201.527 542.525 216.472 548.397 221.698C544.034 229.292 537.371 235.303 529.371 238.866C518.257 232.43 523.134 222.511 523.134 222.511C532.124 220.039 531.66 213.321 529.868 207.051L544.93 193.332Z" fill="#FF8B7B"/>
<path d="M515.536 177.375C515.387 178.47 514.674 179.266 513.878 179.166C513.081 179.067 512.716 178.105 512.866 177.01C513.015 175.915 513.728 175.102 514.442 175.202C515.155 175.301 515.702 176.28 515.536 177.375Z" fill="#263238"/>
<path d="M514.84 175.318L512.318 174.173C512.318 174.173 513.363 176.429 514.84 175.318Z" fill="#263238"/>
<path d="M514.923 179.846C513.597 182.203 511.95 184.363 510.029 186.266C510.53 186.745 511.129 187.109 511.786 187.333C512.442 187.556 513.139 187.634 513.828 187.56L514.923 179.846Z" fill="#FF5652"/>
<path d="M519.418 171.934C519.573 171.991 519.744 171.991 519.899 171.934C519.974 171.891 520.039 171.834 520.092 171.765C520.144 171.697 520.182 171.618 520.204 171.535C520.225 171.451 520.23 171.365 520.218 171.279C520.205 171.194 520.176 171.112 520.131 171.038C519.63 170.126 518.916 169.347 518.049 168.77C517.183 168.192 516.19 167.832 515.155 167.721C514.984 167.716 514.819 167.777 514.692 167.891C514.565 168.006 514.487 168.164 514.475 168.334C514.47 168.507 514.53 168.674 514.644 168.804C514.758 168.933 514.917 169.014 515.088 169.031C515.898 169.131 516.673 169.423 517.348 169.881C518.023 170.34 518.579 170.952 518.97 171.669C519.021 171.742 519.088 171.804 519.165 171.85C519.243 171.895 519.329 171.924 519.418 171.934Z" fill="#263238"/>
<path d="M552.992 178.121C550.255 191.392 549.376 197.164 541.613 203.086C529.918 212.027 514.143 205.74 512.849 191.873C511.671 179.382 516.349 159.675 530.266 156.192C533.333 155.41 536.548 155.425 539.606 156.235C542.665 157.045 545.466 158.624 547.743 160.821C550.02 163.018 551.697 165.761 552.616 168.789C553.535 171.817 553.664 175.029 552.992 178.121Z" fill="#FF8B7B"/>
<path d="M517.378 307.308C517.378 307.308 514.06 410.551 514.873 452.353C515.802 495.83 516.216 597.381 516.216 597.381H523.814C523.814 597.381 544.698 512.982 539.522 452.353C547.352 405.791 552.66 307.308 552.66 307.308H517.378Z" fill="#FF8B7B"/>
<path d="M519.65 307.308C519.65 307.308 546.937 410.551 557.355 452.353C568.17 495.83 591.658 597.381 591.658 597.381H599.256C599.256 597.381 600.914 512.982 582.021 452.353C579.284 405.791 562.215 307.308 562.215 307.308H519.65Z" fill="#FF8B7B"/>
<path d="M501.105 233.741C501.157 231.2 502.094 228.756 503.753 226.831C505.412 224.905 507.69 223.618 510.195 223.191C514.624 222.444 520.446 221.532 525.887 221.067C534.303 220.453 542.752 220.453 551.167 221.067C554.485 221.266 557.554 221.499 560.407 221.83C562.093 222.022 563.722 222.565 565.186 223.423C566.651 224.281 567.92 225.436 568.912 226.814C569.904 228.192 570.597 229.762 570.946 231.423C571.295 233.084 571.293 234.8 570.94 236.461C563.111 273.253 564.106 286.822 564.952 307.308C587.876 340.849 582.037 388.44 584.857 429.08L511.439 454.791C507.591 387.793 509.266 317.559 511.638 307.308C504.655 264.362 500.956 243.693 501.105 233.741Z" fill="#407BFF"/>
<path opacity="0.2" d="M545.561 401.926L548.878 355.479L562.53 346.721L545.561 401.926Z" fill="#263238"/>
<path d="M565.466 308.336L511.091 312.384C510.918 312.407 510.743 312.394 510.575 312.345C510.408 312.296 510.253 312.213 510.12 312.1C509.987 311.988 509.88 311.848 509.804 311.692C509.728 311.535 509.686 311.364 509.681 311.19L509.482 306.661C509.486 306.203 509.657 305.762 509.962 305.421C510.267 305.079 510.686 304.859 511.141 304.803L565.649 300.756C565.82 300.735 565.994 300.75 566.159 300.8C566.324 300.85 566.477 300.934 566.608 301.046C566.739 301.159 566.845 301.297 566.92 301.453C566.995 301.608 567.036 301.778 567.042 301.95L567.258 306.479C567.246 306.956 567.055 307.412 566.724 307.757C566.392 308.101 565.943 308.308 565.466 308.336Z" fill="#263238"/>
<path d="M530.631 220.155L543.537 223.24L546.207 220.387L541.961 219.375L530.631 220.155Z" fill="#FF8B7B"/>
<path d="M514.325 232.679C514.325 235.084 514.325 237.075 514.325 239.231C514.325 241.388 514.077 243.444 513.894 245.535C513.513 249.731 512.816 253.829 512.02 258.009C510.388 266.355 507.759 274.475 504.19 282.194L502.714 285.163C502.432 285.694 502.283 286.075 501.901 286.706C501.521 287.348 501.106 287.968 500.657 288.564C498.787 291.227 496.094 293.202 492.992 294.185C489.89 295.168 486.551 295.104 483.488 294.005C481.127 293.176 478.893 292.02 476.853 290.571C473.296 287.992 470.065 284.989 467.232 281.63C465.822 279.971 464.562 278.312 463.334 276.654C462.107 274.995 460.945 273.336 459.818 271.428C459.363 270.695 459.197 269.819 459.351 268.97C459.505 268.122 459.969 267.36 460.652 266.834C461.336 266.307 462.19 266.053 463.05 266.12C463.911 266.188 464.715 266.572 465.308 267.198L465.391 267.281C467.979 269.985 470.848 272.706 473.685 275.144C476.383 277.538 479.344 279.62 482.51 281.348C483.796 282.104 485.188 282.663 486.64 283.007C487.444 283.242 488.305 283.196 489.079 282.874C489.68 282.469 490.18 281.929 490.538 281.298L490.903 280.635C491.019 280.402 491.235 279.855 491.384 279.49L492.429 277.018C495.134 270.046 497.14 262.823 498.418 255.454C499.065 251.738 499.496 247.973 499.877 244.224C500.06 242.35 500.193 240.459 500.275 238.601C500.358 236.743 500.425 234.769 500.425 233.177V232.911C500.48 231.107 501.229 229.394 502.515 228.127C503.801 226.861 505.525 226.139 507.33 226.111C509.135 226.083 510.881 226.752 512.205 227.978C513.53 229.205 514.331 230.894 514.442 232.695L514.325 232.679Z" fill="#FF8B7B"/>
<path d="M466.652 268.957L458.092 258.075L455.272 271.727C455.272 271.727 461.908 277.45 467.265 275.376L466.652 268.957Z" fill="#FF8B7B"/>
<path d="M446.912 255.321L445.154 266.883L455.256 271.727L458.109 258.075L446.912 255.321Z" fill="#FF8B7B"/>
<path d="M523.416 182.816C527.413 187.792 510.145 191.906 516.382 205.956C522.619 220.006 506.43 214.25 515.52 233.459C524.477 252.385 556.691 262.305 575.236 254.525C568.054 253.215 562.298 244.34 568.352 239.978C577.028 233.691 579.184 224.667 574.506 216.39C569.829 208.112 558.35 195.091 563.625 184.955C570.077 172.564 570.26 163.839 556.99 154.135C543.421 144.182 512.949 135.888 513.861 154.351C514.773 172.813 523.416 182.816 523.416 182.816Z" fill="#263238"/>
<path d="M557.736 196.385L541.878 194.842C541.077 194.783 540.3 194.546 539.603 194.147C538.906 193.749 538.307 193.199 537.851 192.539C537.394 191.878 537.091 191.124 536.964 190.332C536.837 189.539 536.89 188.728 537.117 187.958C537.587 186.248 538.633 184.754 540.077 183.726C541.522 182.698 543.277 182.201 545.046 182.318L560.888 183.877C561.688 183.936 562.466 184.173 563.163 184.572C563.86 184.97 564.458 185.52 564.915 186.18C565.372 186.841 565.675 187.595 565.801 188.388C565.928 189.18 565.876 189.991 565.648 190.761C565.173 192.463 564.128 193.95 562.688 194.974C561.247 195.997 559.5 196.495 557.736 196.385Z" fill="#407BFF"/>
<path d="M527.496 181.555C526.596 184.028 524.753 186.044 522.371 187.162C519.202 188.605 517.062 185.901 517.494 182.633C517.875 179.68 519.998 175.368 523.399 175.301C524.141 175.3 524.873 175.483 525.526 175.835C526.18 176.187 526.735 176.697 527.142 177.318C527.549 177.939 527.794 178.652 527.856 179.392C527.918 180.131 527.794 180.875 527.496 181.555Z" fill="#FF8B7B"/>
<path d="M515.702 595.026H524.709C524.95 595.024 525.184 595.106 525.371 595.257C525.559 595.408 525.688 595.62 525.738 595.855L527.48 604.547C527.54 604.81 527.54 605.082 527.479 605.345C527.419 605.607 527.299 605.853 527.13 606.062C526.96 606.271 526.745 606.439 526.501 606.554C526.257 606.668 525.991 606.725 525.721 606.72C520.927 606.637 519.468 606.355 513.446 606.355C508.271 606.355 507.126 606.737 498.849 606.737C493.873 606.737 495.1 602.689 497.19 602.374C504.655 601.279 507.79 600.715 513.264 596.734C514.226 596.104 514.641 595.026 515.702 595.026Z" fill="#263238"/>
<path d="M590.315 595.026H599.322C599.564 595.027 599.799 595.109 599.988 595.259C600.178 595.41 600.311 595.62 600.367 595.855L602.026 604.547C602.086 604.808 602.086 605.08 602.026 605.341C601.967 605.602 601.849 605.846 601.681 606.055C601.513 606.264 601.301 606.433 601.059 606.548C600.817 606.663 600.552 606.722 600.284 606.72C595.474 606.637 596.966 606.72 590.995 606.72H582.386C577.409 606.72 578.653 602.822 580.727 602.358C584.857 601.429 585.902 599.952 587.843 596.718C588.067 596.241 588.414 595.833 588.848 595.535C589.283 595.238 589.789 595.062 590.315 595.026Z" fill="#263238"/>
</svg>
