<svg width="426" height="528" viewBox="0 0 426 528" fill="none" xmlns="http://www.w3.org/2000/svg">
<path d="M315.597 93.311C338.935 149.306 234.391 189.088 175.868 187.318C101.82 185.079 56.1742 150.124 50.2163 88.8256C44.3095 28.0808 108.603 -14.5521 163.024 5.04935C189.843 14.7096 211.062 35.3919 237.881 45.5799C269.721 57.6659 301.017 58.3212 315.597 93.311Z" fill="#D7E3FF"/>
<path d="M212.781 287.095C303.922 287.095 377.806 282.782 377.806 277.46C377.806 272.139 303.922 267.826 212.781 267.826C121.641 267.826 47.7566 272.139 47.7566 277.46C47.7566 282.782 121.641 287.095 212.781 287.095Z" fill="#F5F5F5"/>
<path d="M338.79 277.46H239.379C237.994 277.475 236.621 277.201 235.348 276.656C234.074 276.112 232.928 275.308 231.983 274.296C231.037 273.284 230.313 272.086 229.855 270.778C229.398 269.471 229.218 268.083 229.327 266.702L243.2 56.4145C243.433 53.5172 244.736 50.8103 246.855 48.8213C248.975 46.8324 251.759 45.7041 254.665 45.6563H354.068C355.452 45.6425 356.824 45.9171 358.096 46.4624C359.369 47.0078 360.514 47.812 361.458 48.8239C362.403 49.8358 363.127 51.0332 363.583 52.34C364.04 53.6469 364.22 55.0344 364.111 56.4145L350.255 266.702C350.023 269.599 348.72 272.306 346.6 274.295C344.481 276.284 341.696 277.412 338.79 277.46Z" fill="#263238"/>
<path d="M359.719 102.205H347.684C347.35 102.208 347.019 102.142 346.712 102.01C346.405 101.879 346.128 101.685 345.9 101.441C345.672 101.197 345.497 100.908 345.387 100.592C345.276 100.277 345.233 99.942 345.259 99.6088L346.459 81.3948C346.526 80.7022 346.846 80.0587 347.358 79.5876C347.87 79.1164 348.538 78.8507 349.234 78.8414H361.26C361.59 78.8385 361.918 78.9035 362.222 79.0325C362.526 79.1614 362.8 79.3515 363.028 79.591C363.255 79.8305 363.431 80.1142 363.544 80.4245C363.657 80.7348 363.705 81.0651 363.686 81.3948L362.486 99.6088C362.431 100.308 362.116 100.962 361.605 101.442C361.093 101.922 360.421 102.194 359.719 102.205Z" fill="#263238"/>
<path d="M280.684 42.6772H276.284V43.5284H280.684V42.6772Z" fill="#407BFF"/>
<path d="M270.862 42.6772H254.861V43.5284H270.862V42.6772Z" fill="#407BFF"/>
<path d="M337.275 277.46H237.864C236.479 277.474 235.107 277.199 233.834 276.654C232.561 276.109 231.416 275.305 230.471 274.293C229.525 273.281 228.801 272.084 228.343 270.777C227.885 269.47 227.705 268.082 227.812 266.702L241.719 56.4145C241.952 53.5173 243.255 50.8103 245.374 48.8214C247.494 46.8325 250.278 45.7041 253.184 45.6563H352.595C353.975 45.6509 355.34 45.9316 356.605 46.4806C357.871 47.0296 359.008 47.835 359.947 48.846C360.885 49.857 361.603 51.0516 362.056 52.3543C362.509 53.657 362.687 55.0395 362.579 56.4145L348.74 266.702C348.508 269.599 347.205 272.306 345.085 274.295C342.966 276.284 340.181 277.412 337.275 277.46Z" fill="#407BFF"/>
<path d="M341.786 252.964H236.613C235.826 252.973 235.046 252.817 234.323 252.508C233.599 252.198 232.949 251.741 232.411 251.167C231.874 250.592 231.462 249.911 231.203 249.169C230.943 248.426 230.84 247.638 230.902 246.853L242.979 63.7764C243.11 62.1348 243.846 60.6004 245.044 59.4711C246.243 58.3417 247.818 57.6982 249.465 57.6654H354.664C355.45 57.657 356.23 57.8126 356.954 58.1221C357.677 58.4316 358.328 58.8883 358.865 59.4631C359.402 60.038 359.814 60.7183 360.074 61.4609C360.334 62.2035 360.436 62.9921 360.375 63.7764L348.297 246.853C348.166 248.499 347.427 250.037 346.223 251.167C345.019 252.297 343.437 252.938 341.786 252.964Z" fill="white"/>
<path d="M322.168 57.6655H301.281L250.682 252.965H271.568L322.168 57.6655Z" fill="#FAFAFA"/>
<path d="M340.569 57.6655H330.126L279.526 252.965H289.97L340.569 57.6655Z" fill="#FAFAFA"/>
<path d="M326.696 192.45L303.988 106.563C303.38 104.28 301.893 102.33 299.851 101.142C297.809 99.953 295.379 99.6224 293.093 100.222L239.37 114.419L232.204 226.648L320.355 203.353C322.638 202.742 324.586 201.252 325.774 199.209C326.962 197.166 327.293 194.736 326.696 192.45Z" fill="#F0F0F0"/>
<path opacity="0.2" d="M293.001 267.505C295.731 264.864 295.941 260.653 293.47 258.099C290.999 255.545 286.783 255.615 284.053 258.256C281.324 260.896 281.114 265.108 283.584 267.662C286.055 270.216 290.271 270.146 293.001 267.505Z" fill="white"/>
<path opacity="0.2" d="M305.239 51.316C305.18 52.0576 304.846 52.7504 304.303 53.2588C303.76 53.7673 303.046 54.0548 302.302 54.0652C301.95 54.0662 301.601 53.9943 301.278 53.8539C300.955 53.7135 300.664 53.5077 300.424 53.2495C300.184 52.9912 300 52.6861 299.884 52.3534C299.768 52.0206 299.722 51.6674 299.749 51.316C299.806 50.5737 300.14 49.8799 300.683 49.371C301.227 48.8622 301.941 48.5753 302.685 48.5669C303.038 48.5659 303.387 48.6378 303.71 48.7782C304.033 48.9186 304.324 49.1244 304.564 49.3826C304.804 49.6408 304.988 49.9459 305.104 50.2787C305.22 50.6114 305.266 50.9646 305.239 51.316Z" fill="white"/>
<path opacity="0.2" d="M303.996 51.316C303.966 51.724 303.785 52.1061 303.487 52.3866C303.189 52.6671 302.797 52.8257 302.388 52.831C302.192 52.8341 301.999 52.7962 301.819 52.7197C301.639 52.6433 301.478 52.5301 301.345 52.3873C301.211 52.2445 301.11 52.0754 301.046 51.8909C300.982 51.7063 300.958 51.5105 300.975 51.316C301.005 50.9079 301.186 50.5259 301.484 50.2454C301.782 49.9649 302.174 49.8063 302.583 49.801C302.779 49.7979 302.972 49.8358 303.152 49.9122C303.332 49.9886 303.493 50.1018 303.626 50.2446C303.759 50.3874 303.861 50.5565 303.925 50.7411C303.989 50.9256 304.013 51.1214 303.996 51.316Z" fill="white"/>
<path d="M144.112 40.6942C147.287 32.8894 146.147 23.3824 137.142 21.2546C135.157 20.7434 133.081 20.7042 131.079 21.1402C129.077 21.5762 127.204 22.4753 125.612 23.7653C124.02 25.0553 122.753 26.7004 121.911 28.5687C121.069 30.4369 120.677 32.4764 120.766 34.5236C121.124 43.0348 126.724 50.1247 116.91 56.2954C107.097 62.466 108.144 81.0631 127.124 77.4714C146.104 73.8796 135.848 64.1172 135.848 64.1172C135.848 64.1172 131.192 67.9132 129.694 64.0491C127.796 59.0445 140.436 49.8268 144.112 40.6942Z" fill="#263238"/>
<path d="M110.714 66.2959L110.297 66.2022C111.565 60.5252 113.557 59.0613 115.659 57.5123C117.762 55.9632 119.753 54.4908 121.362 48.9074C122.119 46.2774 121.643 43.3666 121.175 40.5579C120.579 36.9746 119.966 33.2637 121.813 29.9443L122.179 30.1571C120.409 33.3403 121.013 36.9661 121.592 40.4898C122.068 43.3496 122.562 46.303 121.77 49.001C120.128 54.7206 117.983 56.2952 115.915 57.8272C113.846 59.3592 111.948 60.7806 110.714 66.2959Z" fill="#263238"/>
<path d="M168.284 83.5654C168.344 83.8548 168.446 84.2889 168.54 84.6804L168.838 85.8805C169.042 86.6891 169.272 87.4976 169.51 88.3062C169.995 89.9148 170.514 91.5405 171.076 93.1406C172.199 96.3605 173.483 99.5221 174.923 102.614L175.996 104.852C176.177 105.252 176.434 105.614 176.753 105.916C177.71 106.685 178.851 107.19 180.064 107.38C183.246 107.894 186.491 107.894 189.673 107.38L190.822 110.997C189.942 111.385 189.041 111.726 188.124 112.019C187.213 112.322 186.287 112.577 185.349 112.785C183.397 113.234 181.393 113.42 179.392 113.338C177.036 113.271 174.746 112.549 172.778 111.253C171.671 110.485 170.738 109.493 170.038 108.342L169.902 108.129L169.816 107.984L169.646 107.678L169.297 107.082L168.608 105.873C166.827 102.627 165.263 99.2663 163.927 95.8131C163.28 94.1109 162.641 92.332 162.122 90.5361C161.867 89.685 161.612 88.7403 161.382 87.8211C161.152 86.9018 160.948 86.0337 160.76 84.9443L168.284 83.5654Z" fill="#FFC3BD"/>
<path d="M161.714 71.6667C170.302 75.4968 170.225 88.3658 170.225 88.3658L161.177 93.8045C161.177 93.8045 154.368 83.7272 154.879 79.1481C155.381 74.3733 156.845 69.5134 161.714 71.6667Z" fill="#407BFF"/>
<path opacity="0.2" d="M163.067 82.6464C160.718 80.2718 158.65 83.0124 156.76 86.0509C158.056 88.7377 159.532 91.3338 161.177 93.8217L164.888 91.5917C165.62 88.7575 165.408 85.0296 163.067 82.6464Z" fill="black"/>
<path d="M188.779 107.703L194.822 104.69L194.891 112.597C194.891 112.597 190.38 113.38 187.375 110.214L188.779 107.703Z" fill="#FFC3BD"/>
<path d="M201.317 106.094L200.278 111.967L194.891 112.597L194.822 104.69L201.317 106.094Z" fill="#FFC3BD"/>
<path d="M133.465 271.179L140.938 271.894L144.419 254.505L136.946 253.791L133.465 271.179Z" fill="#FFC3BD"/>
<path d="M84.4656 250.794L90.5427 255.22L100.68 240.836L94.594 236.41L84.4656 250.794Z" fill="#FFC3BD"/>
<path d="M92.7726 252.454L87.768 245.603C87.6848 245.481 87.5596 245.395 87.4166 245.36C87.2736 245.326 87.1229 245.345 86.9934 245.415L80.993 248.599C80.8447 248.685 80.7163 248.801 80.6161 248.94C80.5159 249.079 80.4462 249.238 80.4117 249.406C80.3771 249.574 80.3785 249.747 80.4156 249.915C80.4527 250.082 80.5247 250.24 80.627 250.377C82.4144 252.735 83.3932 253.782 85.5976 256.803C86.9594 258.659 89.683 262.957 91.5555 265.519C93.428 268.081 96.0579 266.37 95.5132 265.136C93.0449 259.595 92.9598 256.352 93.1471 253.756C93.1828 253.291 93.0498 252.829 92.7726 252.454Z" fill="#263238"/>
<path d="M141.925 269.638H132.954C132.793 269.638 132.636 269.692 132.508 269.791C132.381 269.889 132.289 270.027 132.248 270.183L130.299 277.256C130.251 277.423 130.243 277.599 130.275 277.77C130.308 277.941 130.38 278.102 130.486 278.241C130.592 278.379 130.728 278.49 130.885 278.566C131.042 278.642 131.214 278.68 131.388 278.677C134.554 278.677 136.052 278.677 139.993 278.677H152.053C155.33 278.677 156.011 275.366 154.658 275.06C148.581 273.715 145.074 271.86 143.193 270.089C142.843 269.784 142.39 269.623 141.925 269.638Z" fill="#263238"/>
<path opacity="0.2" d="M144.419 254.514L142.623 263.476H135.005L136.946 253.799L144.419 254.514Z" fill="black"/>
<path opacity="0.2" d="M94.594 236.41L100.68 240.845L95.4536 248.258L89.3681 243.823L94.594 236.41Z" fill="black"/>
<path d="M165.254 78.4502C164.727 84.1953 162.82 95.4727 157.245 117.508L126.656 114.861C128.128 103.38 128.818 95.9408 125.941 74.2031C125.847 73.4846 125.903 72.7545 126.103 72.0582C126.304 71.3619 126.645 70.7143 127.107 70.1556C127.568 69.5969 128.139 69.139 128.785 68.8103C129.431 68.4817 130.137 68.2894 130.86 68.2452C133.065 68.1261 135.686 68.0495 138.316 68.1516C142.969 68.2213 147.611 68.6223 152.207 69.3517C154.905 69.8368 157.782 70.5348 160.122 71.1476C161.703 71.5616 163.086 72.5224 164.025 73.8593C164.965 75.1962 165.4 76.8227 165.254 78.4502Z" fill="#407BFF"/>
<path opacity="0.2" d="M126.724 80.5696C127.115 83.9741 127.405 87.0126 127.575 89.7362C130.392 89.4894 132.469 86.3998 132.682 79.9397C131.626 76.8161 129.116 77.9481 126.724 80.5696Z" fill="black"/>
<path d="M157.245 117.508C157.245 117.508 167.595 163.299 160.65 195.582C156.028 217.2 145.738 260.872 145.738 260.872L132.69 260.54C132.69 260.54 138.921 214.707 141.534 196.705C146.002 165.877 134.81 115.602 134.81 115.602L157.245 117.508Z" fill="#263238"/>
<path opacity="0.2" d="M145.312 126.76L138.784 137.05C140.75 149.251 141.998 161.556 142.521 173.904C151.696 157.477 147.347 135.45 145.312 126.76Z" fill="black"/>
<path d="M147.611 261.553L131.49 261.144L132.427 256.19L148.87 256.965L147.611 261.553Z" fill="#407BFF"/>
<path d="M150.555 117.023C150.555 117.023 144.487 165.58 131.32 192.092C120.689 213.507 98.4496 247.543 98.4496 247.543L90.3214 241.032C90.3214 241.032 104.229 203.387 112.127 189.165C131.507 154.268 115.668 127.671 126.656 114.861L150.555 117.023Z" fill="#263238"/>
<path d="M277.847 73.8112L133.176 134.596C128.634 136.504 126.499 141.733 128.407 146.274L162.817 228.171C164.725 232.713 169.954 234.848 174.495 232.939L319.166 172.155C323.708 170.247 325.843 165.018 323.935 160.476L289.525 78.5795C287.617 74.0379 282.388 71.903 277.847 73.8112Z" fill="#407BFF"/>
<path opacity="0.1" d="M277.847 73.8112L133.176 134.596C128.634 136.504 126.499 141.733 128.407 146.274L162.817 228.171C164.725 232.713 169.954 234.848 174.495 232.939L319.166 172.155C323.708 170.247 325.843 165.018 323.935 160.476L289.525 78.5795C287.617 74.0379 282.388 71.903 277.847 73.8112Z" fill="black"/>
<path opacity="0.2" d="M173.082 130.95L144.755 142.852C142.571 143.769 141.544 146.284 142.462 148.468L148.433 162.678C149.35 164.863 151.865 165.889 154.049 164.972L182.376 153.07C184.56 152.152 185.587 149.638 184.669 147.454L178.699 133.243C177.781 131.059 175.266 130.032 173.082 130.95Z" fill="white"/>
<path opacity="0.4" d="M192.959 187.123L165.205 198.784C164.386 199.128 164.001 200.071 164.345 200.89L166.451 205.904C166.796 206.723 167.739 207.108 168.558 206.764L196.312 195.103C197.131 194.759 197.516 193.816 197.172 192.997L195.065 187.983C194.721 187.164 193.778 186.779 192.959 187.123Z" fill="white"/>
<path opacity="0.4" d="M229.068 171.956L201.314 183.617C200.495 183.961 200.11 184.904 200.454 185.723L202.561 190.737C202.905 191.556 203.848 191.941 204.667 191.597L232.421 179.936C233.24 179.592 233.625 178.649 233.281 177.83L231.174 172.816C230.83 171.996 229.887 171.611 229.068 171.956Z" fill="white"/>
<path opacity="0.4" d="M265.169 156.788L237.415 168.449C236.596 168.793 236.211 169.736 236.555 170.555L238.662 175.569C239.006 176.388 239.949 176.773 240.768 176.429L268.522 164.768C269.341 164.424 269.726 163.481 269.382 162.662L267.275 157.648C266.931 156.829 265.988 156.444 265.169 156.788Z" fill="white"/>
<path opacity="0.4" d="M301.279 141.621L273.525 153.282C272.706 153.626 272.321 154.569 272.665 155.388L274.772 160.402C275.116 161.221 276.059 161.606 276.878 161.262L304.632 149.601C305.451 149.257 305.836 148.314 305.492 147.495L303.385 142.481C303.041 141.662 302.098 141.277 301.279 141.621Z" fill="white"/>
<g opacity="0.6">
<path opacity="0.6" d="M276.167 113.51C282.618 111.989 286.614 105.526 285.093 99.0749C283.571 92.6239 277.108 88.6278 270.657 90.1491C264.207 91.6705 260.21 98.1333 261.732 104.584C263.253 111.035 269.716 115.031 276.167 113.51Z" fill="#263238"/>
<path opacity="0.6" d="M268.47 115.11C272.446 109.807 271.37 102.285 266.067 98.3094C260.764 94.3336 253.242 95.4095 249.266 100.713C245.29 106.016 246.366 113.537 251.669 117.513C256.972 121.489 264.494 120.413 268.47 115.11Z" fill="white"/>
</g>
<path d="M99.3007 248.445L88.8745 240.555L91.4363 235.976L102.518 244.572L99.3007 248.445Z" fill="#407BFF"/>
<path d="M126.349 113.031L124.732 115.653C124.605 115.849 124.843 116.095 125.192 116.121L157.279 118.896C157.552 118.896 157.79 118.802 157.824 118.632L158.335 115.917C158.377 115.729 158.148 115.551 157.85 115.525L126.869 112.844C126.773 112.829 126.676 112.838 126.585 112.871C126.494 112.903 126.413 112.959 126.349 113.031Z" fill="#407BFF"/>
<path opacity="0.5" d="M126.349 113.031L124.732 115.653C124.605 115.849 124.843 116.095 125.192 116.121L157.279 118.896C157.552 118.896 157.79 118.802 157.824 118.632L158.335 115.917C158.377 115.729 158.148 115.551 157.85 115.525L126.869 112.844C126.773 112.829 126.676 112.838 126.585 112.871C126.494 112.903 126.413 112.959 126.349 113.031Z" fill="black"/>
<path d="M130.222 116.853L129.371 116.785C129.209 116.785 129.09 116.674 129.107 116.572L129.805 113.048C129.805 112.937 129.975 112.869 130.145 112.886L130.997 112.954C131.167 112.954 131.286 113.065 131.26 113.167L130.563 116.691C130.528 116.793 130.375 116.87 130.222 116.853Z" fill="#407BFF"/>
<path d="M154.905 118.99L154.054 118.922C153.892 118.922 153.773 118.811 153.79 118.709L154.488 115.185C154.518 115.124 154.568 115.075 154.63 115.046C154.692 115.016 154.761 115.009 154.828 115.023L155.679 115.092C155.849 115.092 155.969 115.202 155.943 115.304L155.245 118.828C155.237 118.947 155.083 119.007 154.905 118.99Z" fill="#407BFF"/>
<path d="M142.563 117.925L141.712 117.849C141.542 117.849 141.423 117.738 141.448 117.636L142.146 114.112C142.146 114.01 142.317 113.934 142.478 113.951L143.329 114.027C143.491 114.027 143.61 114.138 143.593 114.24L142.895 117.764C142.878 117.866 142.734 117.934 142.563 117.925Z" fill="#407BFF"/>
<path d="M94.6791 256.241C94.5833 256.258 94.4855 256.258 94.3897 256.241C93.462 256.054 92.6875 254.48 92.2789 253.56C92.2628 253.536 92.2542 253.508 92.2542 253.479C92.2542 253.451 92.2628 253.422 92.2789 253.399C92.301 253.382 92.3279 253.373 92.3555 253.373C92.3831 253.373 92.41 253.382 92.4321 253.399C92.7215 253.501 95.2579 254.479 95.4536 255.407C95.4771 255.508 95.472 255.613 95.4389 255.711C95.4059 255.808 95.3461 255.895 95.2664 255.96C95.1054 256.114 94.8997 256.212 94.6791 256.241ZM92.696 253.756C93.2747 255.024 93.9216 255.833 94.4493 255.935C94.5685 255.953 94.6902 255.941 94.8033 255.899C94.9164 255.857 95.0171 255.788 95.0961 255.697C95.1387 255.665 95.171 255.621 95.1892 255.571C95.2073 255.522 95.2105 255.467 95.1983 255.416C95.0791 254.845 93.5726 254.114 92.696 253.756Z" fill="#407BFF"/>
<path d="M94.7557 253.875C93.9467 253.976 93.1254 253.888 92.3556 253.62C92.3321 253.61 92.3118 253.593 92.2968 253.572C92.2819 253.551 92.2728 253.526 92.2705 253.501C92.2671 253.475 92.2709 253.449 92.2814 253.425C92.2919 253.401 92.3087 253.38 92.33 253.365C92.4066 253.314 94.1599 252.037 95.2153 252.275C95.3457 252.3 95.469 252.353 95.5764 252.431C95.6838 252.509 95.7727 252.61 95.8367 252.726C95.9209 252.833 95.9667 252.965 95.9667 253.101C95.9667 253.237 95.9209 253.369 95.8367 253.475C95.5338 253.73 95.1516 253.872 94.7557 253.875ZM92.7726 253.424C93.6237 253.671 95.2153 253.688 95.6069 253.254C95.675 253.186 95.7345 253.075 95.6069 252.854C95.5649 252.775 95.5055 252.706 95.4333 252.653C95.3611 252.6 95.2779 252.564 95.1898 252.548C94.4749 252.403 93.2492 253.109 92.7726 253.424Z" fill="#407BFF"/>
<path d="M145.908 271.085C145.083 271.064 144.262 270.962 143.457 270.779C143.43 270.767 143.406 270.747 143.39 270.722C143.374 270.698 143.365 270.668 143.365 270.639C143.365 270.609 143.374 270.58 143.39 270.555C143.406 270.53 143.43 270.51 143.457 270.498C143.832 270.319 147.083 268.796 147.9 269.375C147.976 269.423 148.036 269.492 148.074 269.573C148.112 269.655 148.125 269.745 148.113 269.834C148.111 270.001 148.07 270.165 147.993 270.313C147.916 270.46 147.805 270.588 147.67 270.685C147.141 271.003 146.523 271.143 145.908 271.085ZM143.968 270.575C144.938 270.753 146.725 270.992 147.457 270.439C147.552 270.364 147.63 270.27 147.686 270.163C147.742 270.056 147.774 269.938 147.781 269.817C147.781 269.698 147.781 269.647 147.704 269.621C147.245 269.307 145.321 269.979 143.968 270.575Z" fill="#407BFF"/>
<path d="M143.491 270.779C143.461 270.791 143.428 270.791 143.397 270.779C143.375 270.763 143.359 270.74 143.35 270.714C143.341 270.689 143.339 270.661 143.346 270.634C143.346 270.489 144.112 267.281 145.9 267.485C146.342 267.545 146.462 267.757 146.487 267.936C146.598 268.787 144.546 270.404 143.559 270.804L143.491 270.779ZM145.721 267.74C144.589 267.74 143.934 269.613 143.712 270.362C144.776 269.8 146.266 268.464 146.172 267.945C146.172 267.902 146.172 267.783 145.84 267.749L145.721 267.74Z" fill="#407BFF"/>
<path d="M130.043 80.7225L129.592 81.3608L129.099 82.0843C128.767 82.5779 128.435 83.0801 128.12 83.5993C127.473 84.6206 126.886 85.6845 126.29 86.7485C125.113 88.8885 124.079 91.1033 123.192 93.3787C122.298 95.6406 121.55 97.9576 120.953 100.315L120.553 102.018C120.553 101.967 120.502 102.145 120.596 102.469C120.889 103.378 121.316 104.239 121.864 105.022C123.239 106.999 124.782 108.853 126.477 110.563C128.179 112.367 130.069 114.112 131.95 115.848C133.831 117.585 135.805 119.253 137.78 120.896C139.755 122.538 141.772 124.198 143.738 125.798L141.61 128.939C137.051 126.235 132.649 123.274 128.426 120.07C126.298 118.47 124.213 116.785 122.196 114.963C120.081 113.109 118.151 111.054 116.434 108.827C115.405 107.518 114.599 106.049 114.051 104.477C113.678 103.384 113.553 102.221 113.685 101.073V100.835V100.707L113.727 100.452L113.812 99.9324L113.991 98.9025C114.492 96.1612 115.198 93.4612 116.102 90.8253C117.037 88.2025 118.143 85.6436 119.413 83.1652C120.051 81.9226 120.749 80.7225 121.498 79.5394C121.864 78.9436 122.247 78.3564 122.647 77.7691L123.277 76.918C123.498 76.6201 123.685 76.3562 123.983 75.9902L130.043 80.7225Z" fill="#FFC3BD"/>
<path d="M129.286 68.7303C123.447 70.2624 117.813 84.4166 117.813 84.4166L125.371 91.3277C125.371 91.3277 137.244 80.5014 136.844 75.6159C136.512 71.4624 133.976 67.4877 129.286 68.7303Z" fill="#407BFF"/>
<path opacity="0.2" d="M138.316 67.8794C137.247 68.0978 136.156 68.1977 135.065 68.1773C134.835 72.3818 137.533 76.4417 144.164 81.8889C145.755 76.9269 149.27 75.8544 149.27 75.8544L138.316 67.8794Z" fill="black"/>
<path opacity="0.2" d="M152.207 69.2153C152.207 69.2153 152.981 69.326 154.828 69.7515C156.062 71.6495 157.662 77.4968 154.028 81.6673C152.615 76.5605 149.245 75.9137 149.245 75.9137L152.207 69.2153Z" fill="black"/>
<path d="M138.316 67.8794C138.316 67.8794 136.614 67.8794 134.537 67.8794C133.303 69.7774 137.55 75.0374 144.172 80.4845C145.764 75.5225 149.279 75.8204 149.279 75.8204L138.316 67.8794Z" fill="white"/>
<path d="M152.207 69.2153C152.207 69.2153 152.981 69.326 154.828 69.7515C156.062 71.6495 158.726 76.7903 155.092 80.9268C153.679 75.8201 149.245 75.8881 149.245 75.8881L152.207 69.2153Z" fill="white"/>
<path d="M141.048 52.6016C141.542 57.1466 141.704 65.3684 138.316 68.1261C138.316 68.1261 140.078 73.2328 149.245 75.8883C154.76 72.7051 152.207 69.3262 152.207 69.3262C147.33 67.709 147.781 64.0237 148.947 60.6192L141.048 52.6016Z" fill="#FFC3BD"/>
<path opacity="0.2" d="M144.266 55.8784L148.947 60.6192C148.66 61.4071 148.444 62.2188 148.3 63.0449C146.419 62.6108 143.695 60.6532 143.67 58.6446C143.704 57.6947 143.906 56.7583 144.266 55.8784Z" fill="black"/>
<path d="M151.398 34.4385C152.888 32.7958 155.841 34.8896 156.93 38.9154C158.565 44.8733 154.207 45.2988 151.926 42.3199C149.645 39.341 150.155 35.8088 151.398 34.4385Z" fill="#263238"/>
<path d="M156.011 44.899C157.506 45.4161 158.919 46.1441 160.207 47.0608C159.467 45.2564 158.803 44.1585 156.011 44.899Z" fill="#263238"/>
<path d="M156.871 45.1797C158.081 44.9388 159.319 44.87 160.548 44.9754C159.339 44.0477 158.462 43.5881 156.871 45.1797Z" fill="#263238"/>
<path d="M137.031 45.5031C138.929 52.7632 139.584 55.8783 144.027 58.9168C150.726 63.4959 159.228 59.5807 159.543 51.8951C159.824 44.9839 156.675 34.2768 148.904 32.7618C147.192 32.4141 145.419 32.5117 143.755 33.045C142.091 33.5784 140.592 34.5298 139.4 35.8081C138.209 37.0865 137.366 38.6491 136.951 40.3465C136.536 42.0439 136.564 43.8194 137.031 45.5031Z" fill="#FFC3BD"/>
<path d="M140.538 35.9284L138.435 38.3711C137.805 39.0928 136.915 39.5368 135.959 39.6069C135.003 39.677 134.058 39.3676 133.329 38.7456C132.606 38.116 132.16 37.2268 132.088 36.2709C132.017 35.3149 132.325 34.3692 132.946 33.6388L135.048 31.2046C135.679 30.4836 136.568 30.0394 137.523 29.9678C138.478 29.8961 139.423 30.2028 140.155 30.8216C140.876 31.4524 141.32 32.3413 141.392 33.2966C141.463 34.2519 141.157 35.1971 140.538 35.9284Z" fill="white"/>
<path d="M142.478 38.6515L139.925 39.9282C138.877 40.4415 137.668 40.5192 136.563 40.1445C135.458 39.7697 134.546 38.9729 134.027 37.928C133.513 36.8788 133.435 35.669 133.81 34.5625C134.184 33.456 134.981 32.5425 136.027 32.0212L138.58 30.7445C139.63 30.2315 140.841 30.1547 141.948 30.5311C143.054 30.9074 143.967 31.7062 144.487 32.7532C145 33.8022 145.076 35.0115 144.7 36.1168C144.323 37.2221 143.525 38.1334 142.478 38.6515Z" fill="#407BFF"/>
<path d="M139.21 50.9332C139.21 50.9332 144.453 49.7331 142.223 42.0645C142.14 41.7694 142.125 41.4591 142.18 41.1575C142.236 40.8559 142.359 40.5709 142.542 40.3244C142.724 40.078 142.96 39.8765 143.233 39.7355C143.505 39.5945 143.806 39.5178 144.112 39.5111C150.019 39.3494 155.543 38.1152 154.76 34.6937C153.781 30.37 139.065 27.0336 136.393 35.6895C131.175 36.9066 130.98 47.1882 139.21 50.9332Z" fill="#263238"/>
<path d="M139.235 49.4182C140.73 49.9353 142.143 50.6633 143.432 51.5801C142.691 49.7927 142.027 48.6947 139.235 49.4182Z" fill="#263238"/>
<path d="M140.095 49.7162C141.305 49.4753 142.543 49.4065 143.772 49.5119C142.572 48.6012 141.695 48.1331 140.095 49.7162Z" fill="#263238"/>
<path d="M135.839 51.2052C136.519 52.4874 137.679 53.4483 139.065 53.8778C140.912 54.431 141.865 52.7968 141.389 51.035C140.955 49.4519 139.474 47.2645 137.61 47.4773C137.204 47.5334 136.819 47.6895 136.489 47.9314C136.159 48.1734 135.894 48.4937 135.718 48.8635C135.543 49.2332 135.462 49.6408 135.483 50.0496C135.504 50.4584 135.627 50.8555 135.839 51.2052Z" fill="#FFC3BD"/>
<path d="M149.338 45.256C149.458 45.8518 149.875 46.2774 150.258 46.2008C150.641 46.1242 150.87 45.5709 150.76 44.9752C150.649 44.3794 150.224 43.9538 149.832 44.0304C149.44 44.107 149.219 44.6517 149.338 45.256Z" fill="#263238"/>
<path d="M156.105 43.9199C156.224 44.5242 156.632 44.9412 157.024 44.8646C157.416 44.788 157.637 44.2433 157.518 43.6475C157.398 43.0517 156.99 42.6262 156.598 42.7028C156.207 42.7794 155.986 43.3241 156.105 43.9199Z" fill="#263238"/>
<path d="M156.437 42.7712L157.79 42.0732C157.79 42.0732 157.271 43.3414 156.437 42.7712Z" fill="#263238"/>
<path d="M153.781 45.418C154.582 46.6798 155.553 47.8254 156.667 48.8225C156.407 49.1069 156.088 49.3307 155.732 49.4778C155.376 49.6249 154.992 49.6918 154.607 49.6736L153.781 45.418Z" fill="#ED847E"/>
<path d="M151.841 52.4906C150.581 52.5067 149.363 52.0409 148.436 51.1884C148.409 51.1598 148.393 51.1217 148.393 51.082C148.393 51.0423 148.409 51.0041 148.436 50.9756C148.465 50.948 148.503 50.9326 148.543 50.9326C148.582 50.9326 148.62 50.948 148.649 50.9756C149.222 51.4806 149.906 51.8433 150.645 52.0341C151.385 52.2249 152.159 52.2384 152.905 52.0735C152.943 52.0668 152.982 52.0755 153.014 52.0978C153.046 52.1202 153.068 52.1543 153.075 52.1927C153.082 52.2311 153.073 52.2706 153.05 52.3025C153.028 52.3344 152.994 52.3561 152.956 52.3629C152.59 52.4452 152.216 52.488 151.841 52.4906Z" fill="#263238"/>
<path d="M145.278 42.9326C145.225 42.9304 145.172 42.9159 145.125 42.8901C145.058 42.8494 145.009 42.7836 144.99 42.707C144.97 42.6303 144.983 42.5493 145.023 42.4815C145.305 42.0033 145.696 41.5993 146.166 41.3032C146.635 41.007 147.168 40.8274 147.721 40.7793C147.8 40.7792 147.875 40.8091 147.932 40.8629C147.989 40.9168 148.023 40.9904 148.028 41.0687C148.029 41.1078 148.022 41.1468 148.008 41.1833C147.994 41.2199 147.973 41.2534 147.946 41.2818C147.92 41.3103 147.887 41.3332 147.852 41.3492C147.816 41.3652 147.777 41.374 147.738 41.3751C147.282 41.4253 146.844 41.5835 146.46 41.8366C146.077 42.0897 145.759 42.4304 145.534 42.8305C145.503 42.8668 145.463 42.895 145.419 42.9128C145.374 42.9306 145.326 42.9374 145.278 42.9326Z" fill="#263238"/>
<path d="M157.986 40.5324C157.938 40.5451 157.889 40.5451 157.841 40.5324C157.444 40.2984 156.998 40.161 156.538 40.1314C156.078 40.1018 155.618 40.1809 155.194 40.3622C155.118 40.4006 155.031 40.4074 154.95 40.381C154.87 40.3547 154.803 40.2974 154.764 40.2218C154.726 40.1462 154.719 40.0584 154.745 39.9778C154.772 39.8972 154.829 39.8303 154.905 39.792C155.414 39.561 155.972 39.4567 156.531 39.4878C157.09 39.5189 157.633 39.6846 158.113 39.9707C158.147 39.9893 158.177 40.0145 158.201 40.0448C158.225 40.0752 158.243 40.11 158.253 40.1473C158.264 40.1846 158.266 40.2236 158.261 40.262C158.256 40.3004 158.244 40.3373 158.224 40.3707C158.203 40.4167 158.169 40.456 158.127 40.4844C158.085 40.5129 158.036 40.5295 157.986 40.5324Z" fill="#263238"/>
<path d="M140.955 124.53L147.764 125.006L144.691 132.284C144.691 132.284 139.006 130.488 138.776 126.326L140.955 124.53Z" fill="#FFC3BD"/>
<path d="M150.377 129.126L147.083 134.097L144.7 132.284L147.789 125.007L150.377 129.126Z" fill="#FFC3BD"/>
<path d="M149.67 44.0988L151.024 43.4009C151.024 43.4009 150.504 44.669 149.67 44.0988Z" fill="#263238"/>
</svg>
