<svg width="749" height="837" viewBox="0 0 749 837" fill="none" xmlns="http://www.w3.org/2000/svg">
<path d="M207.848 37.9064C231.811 28.0367 258.919 27.7971 279.872 46.6679C302.053 66.647 303.266 99.5211 304.284 127.303C305.437 159.009 309.257 195.433 335.391 213.405C352.779 225.386 376.023 225.476 396.302 219.68C416.581 213.884 434.882 202.861 453.798 193.546C484.216 178.569 518.198 167.636 551.716 172.578C597.081 179.243 652.061 234.702 607.206 276.712C595.883 287.316 581.745 294.325 569.194 303.446C544.198 321.627 526.076 348.017 513.481 376.263C502.008 401.993 494.505 430.015 477.536 452.465C447.268 492.378 387.166 506.022 342.625 483.108C306.366 464.447 283.407 426.271 273.282 386.777C263.158 347.283 264.071 305.902 264.296 265.165C264.431 247.073 263.143 226.225 248.72 215.307C226.629 198.578 193.695 218.617 167.561 209.316C143.268 200.749 134.821 170.376 135.54 147.117C136.559 113.929 151.85 80.0363 176.457 57.7657C185.716 49.4099 196.332 42.6939 207.848 37.9064Z" fill="#D7E3FF"/>
<path d="M374.421 529.521C534.796 529.521 664.806 521.93 664.806 512.567C664.806 503.204 534.796 495.613 374.421 495.613C214.045 495.613 84.035 503.204 84.035 512.567C84.035 521.93 214.045 529.521 374.421 529.521Z" fill="#F5F5F5"/>
<path d="M613.271 458.576C613.271 458.576 601.769 436.111 614.919 413.855C628.068 391.599 631.872 386.403 623.485 381.91C615.098 377.416 611.264 399.672 611.264 399.672C611.264 399.672 604.195 384.336 610.036 368.221C615.877 352.106 619.532 325.986 611.534 323.185C603.536 320.385 610.036 355.82 603.087 367.906C603.087 367.906 597.291 354.427 596.332 341.547C595.374 328.667 596.872 308.044 590.581 302.757C584.291 297.47 580.247 301.139 586.433 329.61C590.147 346.579 592.204 363.869 592.573 381.236C592.573 381.236 578.914 343.883 569.749 342.79C560.583 341.697 560.598 353.798 568.446 364.282C576.293 374.766 591.42 393.576 593.906 403.222C593.906 403.222 578.929 375.11 565.45 383.752C551.971 392.393 577.192 409.347 588.44 415.473C599.687 421.598 607.475 460.074 607.475 460.074L613.271 458.576Z" fill="#407BFF"/>
<path opacity="0.6" d="M613.271 458.576C613.271 458.576 601.769 436.111 614.919 413.855C628.068 391.599 631.872 386.403 623.485 381.91C615.098 377.416 611.264 399.672 611.264 399.672C611.264 399.672 604.195 384.336 610.036 368.221C615.877 352.106 619.532 325.986 611.534 323.185C603.536 320.385 610.036 355.82 603.087 367.906C603.087 367.906 597.291 354.427 596.332 341.547C595.374 328.667 596.872 308.044 590.581 302.757C584.291 297.47 580.247 301.139 586.433 329.61C590.147 346.579 592.204 363.869 592.573 381.236C592.573 381.236 578.914 343.883 569.749 342.79C560.583 341.697 560.598 353.798 568.446 364.282C576.293 374.766 591.42 393.576 593.906 403.222C593.906 403.222 578.929 375.11 565.45 383.752C551.971 392.393 577.192 409.347 588.44 415.473C599.687 421.598 607.475 460.074 607.475 460.074L613.271 458.576Z" fill="white"/>
<path d="M604.18 467.816C604.18 467.816 615.398 445.141 601.949 423.11C588.499 401.079 584.62 395.912 592.963 391.254C601.305 386.596 605.408 408.867 605.408 408.867C605.408 408.867 612.268 393.426 606.217 377.416C600.166 361.405 596.168 335.331 604.09 332.41C612.013 329.49 606.052 365.03 613.076 377.011C613.076 377.011 618.708 363.532 619.487 350.577C620.265 337.622 618.498 317.074 624.728 311.712C630.959 306.351 635.018 309.945 629.221 338.506C625.74 355.518 623.914 372.827 623.77 390.191C623.77 390.191 636.935 352.659 646.085 351.461C655.236 350.263 655.386 362.334 647.673 372.938C639.96 383.541 625.088 402.517 622.736 412.222C622.736 412.222 637.354 383.916 650.953 392.348C664.552 400.779 639.555 418.108 628.398 424.383C617.24 430.658 609.946 469.224 609.946 469.224L604.18 467.816Z" fill="#407BFF"/>
<path opacity="0.7" d="M604.18 467.816C604.18 467.816 615.398 445.141 601.949 423.11C588.499 401.079 584.62 395.912 592.963 391.254C601.305 386.596 605.408 408.867 605.408 408.867C605.408 408.867 612.268 393.426 606.217 377.416C600.166 361.405 596.168 335.331 604.09 332.41C612.013 329.49 606.052 365.03 613.076 377.011C613.076 377.011 618.708 363.532 619.487 350.577C620.265 337.622 618.498 317.074 624.728 311.712C630.959 306.351 635.018 309.945 629.221 338.506C625.74 355.518 623.914 372.827 623.77 390.191C623.77 390.191 636.935 352.659 646.085 351.461C655.236 350.263 655.386 362.334 647.673 372.938C639.96 383.541 625.088 402.517 622.736 412.222C622.736 412.222 637.354 383.916 650.953 392.348C664.552 400.779 639.555 418.108 628.398 424.383C617.24 430.658 609.946 469.224 609.946 469.224L604.18 467.816Z" fill="white"/>
<path d="M655.88 451.657H563.293L570.782 511.085H648.392L655.88 451.657Z" fill="#407BFF"/>
<path d="M384.83 478.495H104.014V511.069H384.83V478.495Z" fill="#407BFF"/>
<path opacity="0.4" d="M384.83 478.495H104.014V511.069H384.83V478.495Z" fill="white"/>
<path opacity="0.4" d="M384.815 478.495H221.373V511.069H384.815V478.495Z" fill="white"/>
<path d="M515.203 478.495H234.387V511.069H515.203V478.495Z" fill="#407BFF"/>
<path opacity="0.4" d="M515.203 478.495H234.387V511.069H515.203V478.495Z" fill="white"/>
<path opacity="0.4" d="M515.203 478.495H351.761V511.069H515.203V478.495Z" fill="white"/>
<path d="M392.932 410.365H105.796C98.6497 410.365 92.8563 416.159 92.8563 423.305V473.807C92.8563 480.954 98.6497 486.747 105.796 486.747H392.932C400.079 486.747 405.872 480.954 405.872 473.807V423.305C405.872 416.159 400.079 410.365 392.932 410.365Z" fill="#407BFF"/>
<path opacity="0.6" d="M392.932 410.365H225.611C218.464 410.365 212.671 416.159 212.671 423.305V473.807C212.671 480.954 218.464 486.747 225.611 486.747H392.932C400.079 486.747 405.872 480.954 405.872 473.807V423.305C405.872 416.159 400.079 410.365 392.932 410.365Z" fill="white"/>
<path opacity="0.6" d="M392.932 410.365H105.796C98.6497 410.365 92.8563 416.159 92.8563 423.305V473.807C92.8563 480.954 98.6497 486.747 105.796 486.747H392.932C400.079 486.747 405.872 480.954 405.872 473.807V423.305C405.872 416.159 400.079 410.365 392.932 410.365Z" fill="white"/>
<path d="M518.737 410.365H231.602C224.455 410.365 218.662 416.159 218.662 423.305V473.807C218.662 480.954 224.455 486.747 231.602 486.747H518.737C525.884 486.747 531.677 480.954 531.677 473.807V423.305C531.677 416.159 525.884 410.365 518.737 410.365Z" fill="#407BFF"/>
<path opacity="0.6" d="M518.737 410.365H351.416C344.27 410.365 338.476 416.159 338.476 423.305V473.807C338.476 480.954 344.27 486.747 351.416 486.747H518.737C525.884 486.747 531.677 480.954 531.677 473.807V423.305C531.677 416.159 525.884 410.365 518.737 410.365Z" fill="white"/>
<path opacity="0.6" d="M518.737 410.365H231.602C224.455 410.365 218.662 416.159 218.662 423.305V473.807C218.662 480.954 224.455 486.747 231.602 486.747H518.737C525.884 486.747 531.677 480.954 531.677 473.807V423.305C531.677 416.159 525.884 410.365 518.737 410.365Z" fill="white"/>
<path d="M284.036 412.132H99.8206L71.769 267.186C71.0518 263.47 71.1647 259.642 72.0994 255.975C73.0341 252.307 74.7676 248.892 77.1759 245.973C79.5843 243.054 82.6079 240.703 86.0307 239.088C89.4534 237.474 93.1906 236.635 96.975 236.633H228.861C234.824 236.636 240.6 238.713 245.199 242.509C249.798 246.304 252.933 251.582 254.067 257.436L284.036 412.132Z" fill="#407BFF"/>
<path d="M152.15 412.132H99.8356L71.769 267.186C71.0518 263.47 71.1647 259.642 72.0994 255.975C73.0341 252.307 74.7676 248.892 77.1759 245.973C79.5843 243.054 82.6079 240.703 86.0307 239.088C89.4534 237.474 93.1906 236.635 96.975 236.633C102.94 236.635 108.718 238.712 113.32 242.507C117.921 246.303 121.059 251.581 122.196 257.436L152.15 412.132Z" fill="#407BFF"/>
<g opacity="0.6">
<path opacity="0.6" d="M284.036 412.132H99.8206L71.769 267.186C71.0518 263.47 71.1647 259.642 72.0994 255.975C73.0341 252.307 74.7676 248.892 77.1759 245.973C79.5843 243.054 82.6079 240.703 86.0307 239.088C89.4534 237.474 93.1906 236.635 96.975 236.633H228.861C234.824 236.636 240.6 238.713 245.199 242.509C249.798 246.304 252.933 251.582 254.067 257.436L284.036 412.132Z" fill="white"/>
<path opacity="0.6" d="M152.15 412.132H99.8356L71.769 267.186C71.0518 263.47 71.1647 259.642 72.0994 255.975C73.0341 252.307 74.7676 248.892 77.1759 245.973C79.5843 243.054 82.6079 240.703 86.0307 239.088C89.4534 237.474 93.1906 236.635 96.975 236.633C102.94 236.635 108.718 238.712 113.32 242.507C117.921 246.303 121.059 251.581 122.196 257.436L152.15 412.132Z" fill="white"/>
</g>
<path opacity="0.6" d="M284.036 411.863H152.15L122.196 257.287C121.053 251.447 117.908 246.189 113.304 242.419C108.7 238.649 102.925 236.603 96.9749 236.634H228.861C234.811 236.607 240.584 238.657 245.185 242.43C249.786 246.202 252.927 251.462 254.067 257.302L284.036 411.863Z" fill="white"/>
<path d="M230.433 261.15C242.625 263.846 241.307 303.804 250.742 314.513C257.556 322.256 283.811 324.248 289.307 329.235C294.804 334.222 289.307 343.957 289.307 343.957C289.307 343.957 244.017 342.939 232.83 337.832C221.642 332.725 230.433 261.15 230.433 261.15Z" fill="#407BFF"/>
<path opacity="0.1" d="M230.433 261.15C242.625 263.846 241.307 303.804 250.742 314.513C257.556 322.256 283.811 324.248 289.307 329.235C294.804 334.222 289.307 343.957 289.307 343.957C289.307 343.957 244.017 342.939 232.83 337.832C221.642 332.725 230.433 261.15 230.433 261.15Z" fill="black"/>
<path d="M315.157 375.094C315.008 375.349 314.843 375.454 314.663 375.424C309.451 374.48 295.463 382.133 278.449 390.97L273.672 393.426L272.039 394.25C263.457 398.638 254.336 403.071 245.32 406.695C234.702 410.994 224.233 414.184 215.022 414.873C213.764 414.978 212.551 415.023 211.353 415.023C169.972 415.023 183.451 346.743 183.451 346.743L232.875 342.954L238.701 353.004L241.861 358.44L248.99 356.523C252.569 355.565 257.901 354.322 263.967 353.019L265.464 352.704C267.516 352.27 269.658 351.835 271.844 351.401C287.974 348.136 306.486 344.976 313.345 344.931C318.228 344.901 317.374 371.844 315.157 375.094Z" fill="#E4897B"/>
<path d="M264.985 350.457L274.57 397.963C274.57 397.963 241.621 424.787 213.165 414.318C184.709 403.849 193.695 355.519 193.695 355.519L231.137 344.047L241.382 356.268L264.985 350.457Z" fill="#407BFF"/>
<path opacity="0.6" d="M274.57 397.889C274.014 398.189 273.483 398.535 272.983 398.922C266.625 403.307 259.9 407.135 252.884 410.364C241.846 414.857 228.037 418.736 215.037 414.693C214.408 414.498 213.794 414.378 213.18 414.153C184.724 403.67 193.71 355.399 193.71 355.399L231.152 343.957L238.641 352.943L241.322 356.148L263.592 350.727L264.985 350.382L265.449 352.703L269.643 373.491L273.672 393.425L274.57 397.889Z" fill="white"/>
<path d="M263.338 349.453L273.327 400.884L279.318 396.151L271.335 348.465L263.338 349.453Z" fill="#407BFF"/>
<path opacity="0.4" d="M279.318 396.151L273.327 400.884L272.983 399.101L272.039 394.249L267.98 373.341L264.027 353.018L263.592 350.726L263.338 349.453L271.335 348.465L271.829 351.4L275.574 373.776L278.449 390.969L279.318 396.151Z" fill="white"/>
<path opacity="0.2" d="M315.157 375.094C315.008 375.349 314.843 375.454 314.663 375.424C309.451 374.48 295.463 382.133 278.449 390.969L279.318 396.152L273.327 400.884L272.983 398.922C266.625 403.307 259.9 407.136 252.884 410.365L245.395 406.515L234.462 400.794L238.955 359.938L245.44 368.924C245.44 368.924 260.567 372.593 268.055 373.312L269.718 373.477C271.77 373.641 273.776 373.761 275.708 373.776C277.026 373.776 278.269 373.776 279.453 373.671C292.198 372.773 306.126 372.293 315.157 375.094Z" fill="black"/>
<path d="M419.141 402.667L418.677 412.566H417.524C416.026 412.656 413.301 412.791 409.541 412.971C388.319 413.944 335.706 415.801 313.27 411.308L210.17 413.36L232.83 373.671L374.555 395.732L418.183 402.517L419.141 402.667Z" fill="#E4897B"/>
<path d="M436.17 390.895C435.99 394.759 435.841 398.249 435.691 401.469C435.481 405.872 435.317 409.796 435.137 413.54C434.837 420.055 429.491 415.727 417.928 414.933C417.644 414.933 417.539 413.989 417.524 412.641C417.524 409.751 417.943 404.868 418.183 402.532C418.183 401.708 418.318 401.199 418.318 401.199C419.731 399.886 421.071 398.496 422.332 397.036C425.547 393.586 428.011 389.506 429.565 385.054C431.872 376.922 436.575 381.729 436.17 390.895Z" fill="#263238"/>
<path d="M260.971 376.667L249.364 417.21L226.539 415.023C226.539 415.023 167.456 437.578 183.107 348.526L229.894 339.974L242.819 371.051L260.971 376.667Z" fill="#407BFF"/>
<path opacity="0.6" d="M260.971 376.667L249.364 417.21L226.539 415.023C226.539 415.023 167.456 437.578 183.107 348.526L229.894 339.974L242.819 371.051L260.971 376.667Z" fill="white"/>
<path d="M258.47 374.45L245.365 417.853H253.108L264.596 376.667L258.47 374.45Z" fill="#407BFF"/>
<path opacity="0.4" d="M258.47 374.45L245.365 417.853H253.108L264.596 376.667L258.47 374.45Z" fill="white"/>
<path opacity="0.2" d="M435.691 401.454C435.481 405.857 435.316 409.781 435.137 413.525C434.837 420.04 429.49 415.712 417.928 414.918C417.644 414.918 417.539 413.974 417.524 412.626C416.026 412.716 413.301 412.851 409.541 413.031C398.608 406.875 383.302 399.716 374.555 395.732L418.183 402.517C418.183 401.693 418.318 401.184 418.318 401.184C419.731 399.871 421.071 398.481 422.332 397.02L435.691 401.454Z" fill="black"/>
<path d="M313.33 344.931C311.533 344.931 312.761 375.08 314.663 375.424C322.706 376.922 432.441 409.257 432.441 409.257L435.646 399.657C435.646 399.657 331.317 344.841 313.33 344.931Z" fill="#E4897B"/>
<path d="M431.138 411.114C430.09 410.739 435.257 397.994 435.257 397.994C435.257 397.994 446.07 392.692 450.488 385.518C454.906 378.344 458.126 384.26 455.236 393.007C452.345 401.753 450.129 408.343 448.077 414.528C446.025 420.714 442.041 415.023 431.138 411.114Z" fill="#263238"/>
<path d="M237.383 349.963L241.382 356.193C241.382 356.193 198.443 407.369 188.214 410.364C188.214 410.364 182.433 405.512 182.583 393.965C182.732 382.418 237.383 349.963 237.383 349.963Z" fill="#407BFF"/>
<path opacity="0.1" d="M237.383 349.963L241.382 356.193C241.382 356.193 198.443 407.369 188.214 410.364C188.214 410.364 182.433 405.512 182.583 393.965C182.732 382.418 237.383 349.963 237.383 349.963Z" fill="black"/>
<path d="M223.02 204.808C225.353 206.459 227.237 208.665 228.503 211.228C229.769 213.791 230.376 216.629 230.269 219.485C229.894 229.34 227.857 244.601 230.269 250.157C232.68 255.714 224.038 257.256 224.038 257.256C224.533 255.743 224.533 254.112 224.038 252.599C224.038 252.599 224.038 255.175 220.594 256.103C217.149 257.032 189.637 257.721 183.451 252.599C177.266 247.477 190.191 206.17 197.305 203.684C204.419 201.198 223.02 204.808 223.02 204.808Z" fill="#263238"/>
<path d="M229.535 224.816C229.535 230.807 229.34 243.657 232.141 248.66C234.941 253.662 230.838 255.759 230.838 255.759" stroke="#263238" stroke-width="0.5" stroke-linecap="round" stroke-linejoin="round"/>
<path d="M232.815 335.256L240.633 352.958L183.841 405.377C170.99 399.761 181.025 309.301 170.152 276.576C169.628 275.079 169.088 273.356 168.504 271.664C168.32 271.113 168.249 270.53 168.295 269.95C168.342 269.371 168.505 268.807 168.775 268.292C169.045 267.777 169.416 267.323 169.866 266.955C170.317 266.587 170.836 266.314 171.395 266.153C176.715 264.642 182.115 263.427 187.57 262.513C194.904 261.212 202.321 260.431 209.765 260.177C219.396 260.177 230.433 261.18 230.433 261.18C230.433 261.18 231.931 261.555 232.994 271.754C233.908 281.294 234.792 300.434 232.815 335.256Z" fill="#407BFF"/>
<path d="M189.846 264.295C189.846 264.295 193.516 269.507 205.692 271.065C205.692 271.065 211.682 267.096 209.166 262.273C209.166 262.273 206.53 261.45 205.961 257.256C205.694 254.299 206.077 251.318 207.085 248.525C207.219 248.075 207.384 247.596 207.549 247.117L192.153 237.487C192.153 237.487 197.574 257.002 189.846 264.295Z" fill="#E4897B"/>
<path opacity="0.2" d="M195.612 243.073C195.612 243.073 196.436 254.081 205.961 257.256C205.694 254.299 206.077 251.318 207.085 248.525C201.468 245.619 195.612 243.073 195.612 243.073Z" fill="black"/>
<path d="M183.841 265.673C183.841 265.673 185.233 256.837 188.768 256.358C188.768 256.358 196.87 262.903 208.612 257.257C208.612 257.257 210.769 256.942 210.814 261.016C210.859 265.089 215.846 264.311 212.311 271.499C208.777 278.688 192.737 280.845 183.841 265.673Z" fill="#407BFF"/>
<path opacity="0.1" d="M183.841 265.673C183.841 265.673 185.233 256.837 188.768 256.358C188.768 256.358 196.87 262.903 208.612 257.257C208.612 257.257 210.769 256.942 210.814 261.016C210.859 265.089 215.846 264.311 212.311 271.499C208.777 278.688 192.737 280.845 183.841 265.673Z" fill="black"/>
<path d="M211.353 207.009C223.933 209.151 226.839 216.58 225.551 229.714C223.933 246.189 218.377 257.017 203.235 250.862C182.717 242.519 190.46 203.445 211.353 207.009Z" fill="#E4897B"/>
<path d="M217.538 227.647C218.225 229.698 219.155 231.659 220.309 233.488C219.851 233.944 219.276 234.265 218.647 234.415C218.018 234.566 217.36 234.54 216.745 234.342L217.538 227.647Z" fill="#DE5753"/>
<path d="M210.005 225.266C209.855 226.314 209.166 227.063 208.507 226.973C207.848 226.883 207.384 225.94 207.534 224.906C207.684 223.873 208.373 223.109 209.032 223.214C209.691 223.319 210.155 224.232 210.005 225.266Z" fill="#263238"/>
<path d="M208.732 223.154L211.128 222.6C211.128 222.6 209.676 224.397 208.732 223.154Z" fill="#263238"/>
<path d="M222.945 226.943C222.795 227.992 222.106 228.74 221.447 228.651C220.788 228.561 220.309 227.617 220.459 226.584C220.609 225.55 221.298 224.787 221.957 224.891C222.616 224.996 223.155 225.91 222.945 226.943Z" fill="#263238"/>
<path d="M221.657 224.892L224.038 224.338C224.038 224.338 222.66 226.15 221.657 224.892Z" fill="#263238"/>
<path d="M211.368 216.565C210.394 216.274 209.366 216.21 208.364 216.379C207.362 216.548 206.412 216.944 205.587 217.539" stroke="#263238" stroke-width="0.72468" stroke-linecap="round" stroke-linejoin="round"/>
<path d="M220.609 217.598C221.505 217.529 222.405 217.664 223.243 217.99C224.08 218.317 224.833 218.828 225.446 219.485" stroke="#263238" stroke-width="0.72468" stroke-linecap="round" stroke-linejoin="round"/>
<path d="M193.98 225.866C193.98 225.866 201.633 216.535 202.097 208.403C202.097 208.403 228.786 202.412 225.686 227.992C225.686 227.992 231.961 205.932 210.409 201.738C188.858 197.544 183.556 229.146 193.201 240.543C193.201 240.543 189.232 231.722 193.98 225.866Z" fill="#263238"/>
<path d="M195.582 228.875C195.691 227.41 195.219 225.962 194.269 224.841C193.32 223.72 191.968 223.018 190.505 222.884C186.536 222.645 183.301 230.373 192.677 233.922C194.025 234.357 195.043 233.129 195.582 228.875Z" fill="#E4897B"/>
<path d="M223.02 212.116C223.02 212.116 229.011 205.182 224.053 199.386C219.096 193.59 198.158 192.452 191.104 198.637C184.05 204.822 184.799 208.177 184.799 208.177C181.596 215.145 180.239 222.819 180.86 230.463C182.178 242.25 177.625 249.558 180.65 253.302C183.676 257.047 186.641 257.256 186.641 257.256C185.86 254.495 185.86 251.571 186.641 248.809C188.019 245.065 186.641 247.686 186.641 247.686C186.641 247.686 188.244 257.421 189.906 258.544C191.728 259.37 193.679 259.877 195.672 260.042C193.696 255.421 192.869 250.39 193.261 245.38C194.204 238.071 198.128 230.583 197.2 221.971C196.762 216.547 198.252 211.143 201.408 206.71C201.408 206.71 216.34 205.002 223.02 212.116Z" fill="#263238"/>
<path d="M223.02 209.87C224.574 209.319 225.897 208.259 226.772 206.861C227.648 205.463 228.025 203.811 227.843 202.172C227.273 196.181 216.131 192.557 209.87 193.575" stroke="#263238" stroke-width="0.5" stroke-linecap="round" stroke-linejoin="round"/>
<path d="M186.581 207.428C186.581 207.428 178.853 218.451 179.572 231.047C180.291 243.642 175.978 247.521 177.296 251.43" stroke="#263238" stroke-width="0.5" stroke-linecap="round" stroke-linejoin="round"/>
<path d="M207.085 235.885C207.085 235.885 207.549 239.374 214.573 239.644" stroke="#263238" stroke-width="0.5" stroke-linecap="round" stroke-linejoin="round"/>
<path d="M250.742 332.755C250.742 332.755 259.354 334.477 260.971 334.986C265.85 337.536 270.473 340.545 274.78 343.973C276.817 345.979 263.592 349.229 260.971 348.466C258.35 347.702 253.618 342.1 253.618 342.1L244.122 340.603L250.742 332.755Z" fill="#E4897B"/>
<path d="M171.395 266.123C171.395 266.123 164.251 268.579 162.753 289.547C161.255 310.514 164.535 344.961 179.228 354.456C193.92 363.952 247.163 343.973 247.163 343.973C247.163 343.973 249.484 333.099 247.163 330.733C237.547 320.923 204.194 329.864 192.542 324.428C180.89 318.991 186.551 276.652 171.395 266.123Z" fill="#407BFF"/>
<path opacity="0.1" d="M171.395 266.123C171.395 266.123 164.251 268.579 162.753 289.547C161.255 310.514 164.535 344.961 179.228 354.456C193.92 363.952 247.163 343.973 247.163 343.973C247.163 343.973 249.484 333.099 247.163 330.733C237.547 320.923 204.194 329.864 192.542 324.428C180.89 318.991 186.551 276.652 171.395 266.123Z" fill="black"/>
<path d="M247.118 330.732L245.365 344.601L252.854 344.93L256.104 332.754L247.118 330.732Z" fill="#407BFF"/>
<path opacity="0.2" d="M247.118 330.732L245.365 344.601L252.854 344.93L256.104 332.754L247.118 330.732Z" fill="black"/>
<path d="M336.979 345.964V350.367C336.979 351.49 335.646 351.955 334.537 351.955H246.608C245.485 351.955 244.122 351.49 244.122 350.367V345.964H336.979Z" fill="#263238"/>
<path opacity="0.4" d="M336.979 345.964V350.367C336.979 351.49 335.646 351.955 334.537 351.955H246.608C245.485 351.955 244.122 351.49 244.122 350.367V345.964H336.979Z" fill="white"/>
<path opacity="0.2" d="M336.979 345.964V350.367C336.979 351.49 335.646 351.955 334.537 351.955H276.547C275.409 351.955 274.076 351.49 274.076 350.367V345.964H336.979Z" fill="black"/>
<path d="M351.686 300.285L341.202 347.761C341.013 348.523 340.577 349.201 339.962 349.689C339.347 350.177 338.587 350.447 337.802 350.457H280.651C280.293 350.45 279.941 350.36 279.624 350.194C279.307 350.027 279.033 349.789 278.823 349.499C278.614 349.208 278.475 348.873 278.418 348.519C278.361 348.166 278.387 347.804 278.494 347.462L288.978 300.345C289.196 299.636 289.648 299.022 290.26 298.603C290.872 298.184 291.608 297.985 292.348 298.038H349.529C351.072 298.038 352.03 298.727 351.686 300.285Z" fill="#263238"/>
<path opacity="0.4" d="M351.686 300.285L341.202 347.761C341.013 348.523 340.577 349.201 339.962 349.689C339.347 350.177 338.587 350.447 337.802 350.457H282.598C282.239 350.45 281.888 350.359 281.57 350.193C281.253 350.027 280.978 349.789 280.768 349.499C280.558 349.209 280.417 348.874 280.358 348.521C280.299 348.167 280.322 347.805 280.426 347.462L290.91 300.345C291.129 299.633 291.583 299.017 292.198 298.598C292.813 298.179 293.552 297.982 294.295 298.038H349.529C351.072 298.038 352.03 298.727 351.686 300.285Z" fill="white"/>
<path opacity="0.2" d="M323.499 324.413C323.499 328.471 319.141 331.781 316.011 331.781C312.881 331.781 310.919 328.471 311.833 324.413C312.746 320.354 315.921 317.179 319.051 317.059C318.138 321.118 320.085 324.413 323.26 324.413H323.499Z" fill="black"/>
<path d="M485.249 254.606V258.35" stroke="#407BFF" stroke-width="2" stroke-linejoin="round"/>
<path d="M485.249 262.739V319.052" stroke="#407BFF" stroke-width="2" stroke-linejoin="round" stroke-dasharray="4.88 2.93"/>
<path d="M485.249 321.252V324.997H481.505" stroke="#407BFF" stroke-width="2" stroke-linejoin="round"/>
<path d="M477.177 324.997H363.862" stroke="#407BFF" stroke-width="2" stroke-linejoin="round" stroke-dasharray="4.82 2.89"/>
<path d="M361.69 324.997H357.946" stroke="#407BFF" stroke-width="2" stroke-linejoin="round"/>
<path d="M485.249 255.58C488.243 255.58 490.671 253.152 490.671 250.158C490.671 247.164 488.243 244.736 485.249 244.736C482.255 244.736 479.828 247.164 479.828 250.158C479.828 253.152 482.255 255.58 485.249 255.58Z" fill="#407BFF"/>
<path d="M357.946 330.419C360.94 330.419 363.368 327.992 363.368 324.997C363.368 322.003 360.94 319.576 357.946 319.576C354.952 319.576 352.525 322.003 352.525 324.997C352.525 327.992 354.952 330.419 357.946 330.419Z" fill="#407BFF"/>
<path d="M646.55 0H322.451C317.24 0 313.016 4.22438 313.016 9.43541V228.696C313.016 233.907 317.24 238.132 322.451 238.132H646.55C651.761 238.132 655.985 233.907 655.985 228.696V9.43541C655.985 4.22438 651.761 0 646.55 0Z" fill="#263238"/>
<path opacity="0.4" d="M646.55 0H322.451C317.24 0 313.016 4.22438 313.016 9.43541V228.696C313.016 233.907 317.24 238.132 322.451 238.132H646.55C651.761 238.132 655.985 233.907 655.985 228.696V9.43541C655.985 4.22438 651.761 0 646.55 0Z" fill="white"/>
<path d="M655.985 38.9395H313.016V194.698H655.985V38.9395Z" fill="#407BFF"/>
<path opacity="0.4" d="M655.985 38.9395H313.016V194.698H655.985V38.9395Z" fill="black"/>
<path d="M646.999 151.266V118.317H641.008V77.8794H633.52V118.317H620.041V178.224H593.082V118.317H545.157V178.224H521.194V181.22H498.728V121.312H489.742V155.759H467.277V145.275H426.84V112.326H420.849V71.8887H413.36V112.326H399.881V172.233H372.923V112.326H324.997V172.233H313.016V194.699H521.194H557.138H655.985V151.266H646.999Z" fill="#407BFF"/>
<path opacity="0.3" d="M646.999 151.266V118.317H641.008V77.8794H633.52V118.317H620.041V178.224H593.082V118.317H545.157V178.224H521.194V181.22H498.728V121.312H489.742V155.759H467.277V145.275H426.84V112.326H420.849V71.8887H413.36V112.326H399.881V172.233H372.923V112.326H324.997V172.233H313.016V194.699H521.194H557.138H655.985V151.266H646.999Z" fill="black"/>
<path d="M395.388 68.8931H335.481V194.698H395.388V68.8931Z" fill="#407BFF"/>
<g opacity="0.4">
<path opacity="0.4" d="M395.388 80.875H335.481V82.3727H395.388V80.875Z" fill="black"/>
</g>
<path opacity="0.4" d="M395.388 92.856H335.481V94.3536H395.388V92.856Z" fill="black"/>
<path opacity="0.4" d="M395.388 127.303H335.481V128.8H395.388V127.303Z" fill="black"/>
<path opacity="0.4" d="M395.388 139.284H335.481V140.782H395.388V139.284Z" fill="black"/>
<path opacity="0.4" d="M395.388 151.266H335.481V152.763H395.388V151.266Z" fill="black"/>
<path opacity="0.4" d="M395.388 163.247H335.481V164.745H395.388V163.247Z" fill="black"/>
<path d="M480.756 124.308H422.347V194.699H480.756V124.308Z" fill="#407BFF"/>
<path opacity="0.4" d="M480.756 136.289H422.347V137.787H480.756V136.289Z" fill="black"/>
<path opacity="0.4" d="M480.756 148.271H422.347V149.768H480.756V148.271Z" fill="black"/>
<path opacity="0.4" d="M480.756 160.251H422.347V161.749H480.756V160.251Z" fill="black"/>
<path d="M566.124 100.345H506.217V194.699H566.124V100.345Z" fill="#407BFF"/>
<path opacity="0.4" d="M566.124 112.326H506.217V113.823H566.124V112.326Z" fill="black"/>
<path opacity="0.4" d="M566.124 137.787H506.217V139.284H566.124V137.787Z" fill="black"/>
<path opacity="0.4" d="M566.124 172.233H506.217V173.731H566.124V172.233Z" fill="black"/>
<path opacity="0.4" d="M566.124 184.215H506.217V185.713H566.124V184.215Z" fill="black"/>
<g opacity="0.2">
<path opacity="0.2" d="M395.388 68.8931H335.481V194.698H395.388V68.8931Z" fill="black"/>
</g>
<g opacity="0.2">
<path opacity="0.2" d="M480.756 124.308H422.347V194.699H480.756V124.308Z" fill="black"/>
</g>
<g opacity="0.2">
<path opacity="0.2" d="M566.124 100.345H506.217V194.699H566.124V100.345Z" fill="black"/>
</g>
<path d="M623.53 238.131H512.207L533.999 122.405C534.613 119.152 536.343 116.215 538.892 114.101C541.44 111.988 544.646 110.83 547.957 110.828H630.33C632.418 110.827 634.481 111.287 636.372 112.174C638.262 113.062 639.933 114.356 641.266 115.964C642.6 117.571 643.561 119.453 644.084 121.475C644.606 123.497 644.676 125.61 644.288 127.662L623.53 238.131Z" fill="#407BFF"/>
<path opacity="0.4" d="M623.53 238.131H512.207L533.999 122.405C534.613 119.152 536.343 116.215 538.892 114.101C541.44 111.988 544.646 110.83 547.957 110.828H630.33C632.418 110.827 634.481 111.287 636.372 112.174C638.262 113.062 639.933 114.356 641.266 115.964C642.6 117.571 643.561 119.453 644.084 121.475C644.606 123.497 644.676 125.61 644.288 127.662L623.53 238.131Z" fill="white"/>
<path opacity="0.2" d="M623.53 238.131H594.58L616.386 122.405C616.998 119.151 618.727 116.212 621.276 114.098C623.825 111.984 627.033 110.827 630.345 110.828C632.433 110.827 634.496 111.287 636.387 112.174C638.277 113.062 639.948 114.356 641.282 115.964C642.615 117.571 643.577 119.453 644.099 121.475C644.621 123.497 644.691 125.61 644.303 127.662L623.53 238.131Z" fill="black"/>
<path d="M533.924 163.248C533.924 163.248 532.261 167.741 529.611 173.492C525.387 182.703 518.663 195.134 512.208 197.605C506.921 199.642 493.636 200.016 481.775 199.896C469.913 199.776 459.789 199.192 459.789 199.192V190.206L498.728 179.827C498.728 179.827 519.277 142.745 531.423 137.248L533.924 163.248Z" fill="#407BFF"/>
<path opacity="0.2" d="M529.611 173.492C525.387 182.703 518.663 195.133 512.208 197.604C506.921 199.641 493.636 200.016 481.775 199.896C481.775 199.896 500.75 189.622 506.217 184.215C512.282 178.224 527.903 154.381 527.903 154.381L529.611 173.492Z" fill="black"/>
<path d="M552.72 129.37C556.359 127.708 578.106 127.708 578.106 127.708V143.778L547.403 149.514C547.403 149.514 545.426 132.665 552.72 129.37Z" fill="#407BFF"/>
<path d="M594.58 238.132C593.966 224.218 588.11 178.869 596.078 135.016C589.906 133.942 583.664 133.321 577.402 133.159C568.237 132.827 559.061 133.027 549.919 133.758C543.659 134.528 537.47 135.79 531.408 137.533C531.408 137.533 522.811 169.478 532.381 238.132H594.58Z" fill="white"/>
<path opacity="0.1" d="M574.451 195.538C579.933 194.325 586.567 189.008 591.989 183.766C591.989 174.435 592.438 164.506 593.487 154.381C585.774 165.749 564.986 197.694 574.451 195.538Z" fill="black"/>
<path d="M574.077 102.352C572.579 111.233 571.156 127.468 577.462 133.234C574.9 135.978 571.819 138.186 568.397 139.729C564.975 141.271 561.28 142.118 557.527 142.22C546.205 142.715 550.039 133.773 550.039 133.773C559.864 131.197 559.444 123.889 557.527 117.059L574.077 102.352Z" fill="#B97964"/>
<path opacity="0.2" d="M567.337 108.373L557.527 117.119C557.989 118.705 558.31 120.329 558.486 121.972C562.245 121.342 567.322 117.104 567.637 113.15C567.83 111.553 567.729 109.933 567.337 108.373Z" fill="black"/>
<path d="M552.645 79.3772C557.542 82.7021 555.311 88.3633 544.213 97.1697C539.72 91.3287 538.956 79.9763 542.551 77.1307C546.145 74.2851 548.287 76.5017 552.645 79.3772Z" fill="#263238"/>
<path d="M573.613 88.5137C573.073 100.495 573.358 107.549 567.427 113.795C558.441 123.2 543.614 117.973 540.469 106.052C537.743 95.3581 539.061 77.5956 550.698 72.5784C553.263 71.4542 556.073 71.0066 558.86 71.2785C561.647 71.5505 564.317 72.5327 566.616 74.1315C568.915 75.7302 570.765 77.8919 571.99 80.41C573.215 82.928 573.774 85.7182 573.613 88.5137Z" fill="#B97964"/>
<path d="M555.835 92.1081C555.835 93.0816 555.341 93.8753 554.712 93.8903C554.083 93.9053 553.559 93.1265 553.544 92.153C553.529 91.1795 554.008 90.3857 554.652 90.3558C555.296 90.3258 555.76 91.1495 555.835 92.1081Z" fill="#263238"/>
<path d="M544.752 92.3177C544.752 93.2912 544.258 94.085 543.629 94.1C543 94.1149 542.461 93.3361 542.446 92.3477C542.431 91.3592 542.925 90.5654 543.569 90.5654C544.213 90.5654 544.737 91.3592 544.752 92.3177Z" fill="#263238"/>
<path d="M548.377 92.7065C547.27 95.7039 545.758 98.5358 543.884 101.124C544.557 101.589 545.325 101.902 546.132 102.039C546.939 102.176 547.767 102.135 548.556 101.917L548.377 92.7065Z" fill="#A24E3F"/>
<path d="M558.8 88.5582C558.922 88.5953 559.053 88.5953 559.175 88.5582C559.291 88.4616 559.367 88.3245 559.386 88.1744C559.406 88.0244 559.368 87.8726 559.28 87.7495C558.735 87.0202 558.024 86.4317 557.206 86.0331C556.388 85.6345 555.487 85.4373 554.577 85.458C554.504 85.4619 554.433 85.48 554.367 85.5115C554.301 85.5429 554.242 85.587 554.194 85.6413C554.145 85.6955 554.107 85.7589 554.083 85.8277C554.059 85.8965 554.049 85.9693 554.053 86.0421C554.071 86.189 554.145 86.3234 554.259 86.4179C554.373 86.5124 554.519 86.5601 554.667 86.5513C555.386 86.5399 556.097 86.7013 556.741 87.0219C557.385 87.3424 557.942 87.8128 558.366 88.3935C558.422 88.4516 558.489 88.4965 558.565 88.525C558.64 88.5535 558.72 88.5649 558.8 88.5582Z" fill="#263238"/>
<path d="M539.645 88.663C539.754 88.658 539.859 88.625 539.951 88.5673C540.042 88.5095 540.118 88.429 540.169 88.3336C540.448 87.6697 540.881 87.0824 541.434 86.621C541.986 86.1597 542.642 85.8379 543.344 85.6827C543.494 85.6569 543.628 85.5736 543.718 85.4505C543.807 85.3275 543.845 85.1743 543.824 85.0237C543.801 84.8779 543.723 84.7464 543.606 84.6569C543.489 84.5675 543.341 84.5272 543.195 84.5444C542.302 84.7285 541.466 85.1255 540.76 85.7018C540.053 86.2781 539.496 87.0165 539.136 87.8543C539.074 87.9896 539.068 88.1437 539.118 88.2837C539.168 88.4237 539.272 88.5383 539.405 88.6032C539.481 88.6371 539.562 88.6574 539.645 88.663Z" fill="#263238"/>
<path d="M568.715 77.9846C563.144 80.0064 563.937 86.0271 572.534 97.2897C578.345 92.7218 581.85 81.8935 579.064 78.2691C576.278 74.6447 573.613 76.2323 568.715 77.9846Z" fill="#263238"/>
<path d="M579.603 98.0091C578.814 100.923 576.902 103.406 574.287 104.913C570.812 106.89 568.116 104 568.296 100.226C568.446 96.811 570.437 91.6739 574.287 91.2396C578.136 90.8053 580.487 94.4297 579.603 98.0091Z" fill="#B97964"/>
<path d="M579.738 79.677C579.738 79.677 582.254 72.6379 573.972 66.8419C566.828 61.8247 547.777 62.5286 542.446 68.5193C539.207 72.3491 537.387 77.1783 537.294 82.1932L540.199 77.7001L539.405 83.3164L547.163 77.3257L544.752 83.3164C544.752 83.3164 552.75 82.1932 556.734 77.7001L554.697 81.7738C554.697 81.7738 559.594 82.3729 566.139 77.5054C566.139 77.5054 561.302 83.1217 567.742 86.4915C574.182 89.8613 579.738 79.677 579.738 79.677Z" fill="#263238"/>
<path d="M557.527 103.91C556.684 105.196 555.503 106.226 554.114 106.886C552.724 107.547 551.18 107.812 549.65 107.654" stroke="#263238" stroke-width="0.5" stroke-linecap="round" stroke-linejoin="round"/>
<path d="M598.714 238.132C597.755 209.511 596.003 154.426 596.138 135.016C596.138 135.016 584.246 132.89 579.049 133.219C573.852 133.549 565.166 136.784 565.166 136.784C565.166 136.784 564.971 198.458 570.617 238.132H598.714Z" fill="#407BFF"/>
<path opacity="0.2" d="M598.714 238.132C597.755 209.511 596.003 154.426 596.138 135.016C596.138 135.016 584.246 132.89 579.049 133.219C573.852 133.549 565.166 136.784 565.166 136.784C565.166 136.784 564.971 198.458 570.617 238.132H598.714Z" fill="white"/>
<path d="M577.462 127.708L565.181 136.783L569.614 146.773L582.733 133.009L577.462 127.708Z" fill="#407BFF"/>
<path d="M535.137 238.132C542.266 144.766 551.117 137.233 551.117 137.233L549.38 132.006L531.408 137.532C523.051 149.813 521.343 211.713 520.999 238.132H535.137Z" fill="#407BFF"/>
<path opacity="0.2" d="M535.137 238.132C542.266 144.766 551.117 137.233 551.117 137.233L549.38 132.006L531.408 137.532C523.051 149.813 521.343 211.713 520.999 238.132H535.137Z" fill="white"/>
<path d="M518.198 189.323C518.198 189.323 495.613 188.634 493.307 188.394C491 188.154 481.191 182.643 479.124 182.403C477.057 182.164 471.456 190.91 470.767 192.977C470.078 195.044 486.373 200.57 487.99 200.346C489.826 199.858 491.612 199.196 493.322 198.369L518.198 201.274V189.323Z" fill="#B97964"/>
<path d="M596.078 135.017C617.18 142.625 580.142 199.761 568.64 205.647C557.138 211.533 498.728 199.192 498.728 199.192L501.02 187.376C501.02 187.376 552.72 188.694 557.483 187.495C562.245 186.297 573.568 161.93 580.083 150.428C583.7 143.766 589.286 138.383 596.078 135.017Z" fill="#407BFF"/>
<path d="M505.213 185.713L502.218 201.708L496.692 199.671L498.758 185.713H505.213Z" fill="#407BFF"/>
<path opacity="0.2" d="M505.213 185.713L502.218 201.708L496.692 199.671L498.758 185.713H505.213Z" fill="white"/>
<path d="M552.076 129.55C552.076 129.55 543.314 135.541 543.868 141.277L551.117 137.233C551.117 137.233 550.009 132.291 552.076 129.55Z" fill="#407BFF"/>
<path d="M409.736 205.827L547.298 205.827C548.192 205.827 548.916 205.103 548.916 204.21V200.181C548.916 199.288 548.192 198.563 547.298 198.563L409.736 198.563C408.843 198.563 408.119 199.288 408.119 200.181V204.21C408.119 205.103 408.843 205.827 409.736 205.827Z" fill="#407BFF"/>
<path opacity="0.5" d="M408.867 199.986V204.03C408.867 204.928 408.867 205.183 409.721 205.183H547.298C548.197 205.183 549.65 204.928 549.65 204.03V199.986C549.65 199.102 548.152 199.192 547.298 199.192H409.721C408.867 199.192 408.867 199.102 408.867 199.986Z" fill="white"/>
<path opacity="0.2" d="M491.24 199.986V204.03C491.24 204.928 491.704 205.183 492.588 205.183H547.298C548.197 205.183 549.65 204.928 549.65 204.03V199.986C549.65 199.102 548.152 199.192 547.298 199.192H492.588C491.704 199.192 491.24 199.102 491.24 199.986Z" fill="black"/>
<path d="M419.351 193.201V197.604C419.351 198.728 420.489 199.192 421.598 199.192H509.527C510.65 199.192 512.208 198.728 512.208 197.604V193.201H419.351Z" fill="#263238"/>
<path opacity="0.6" d="M419.351 193.201V197.604C419.351 198.728 420.489 199.192 421.598 199.192H509.527C510.65 199.192 512.208 198.728 512.208 197.604V193.201H419.351Z" fill="white"/>
<path opacity="0.2" d="M419.351 193.201V197.604C419.351 198.728 420.489 199.192 421.598 199.192H479.588C480.711 199.192 482.254 198.728 482.254 197.604V193.201H419.351Z" fill="black"/>
<path d="M404.449 147.522L414.933 194.999C415.126 195.758 415.564 196.434 416.178 196.921C416.792 197.408 417.549 197.679 418.333 197.695H475.514C475.872 197.689 476.224 197.599 476.541 197.432C476.858 197.266 477.131 197.027 477.339 196.736C477.548 196.445 477.685 196.109 477.74 195.755C477.795 195.402 477.766 195.04 477.656 194.699L467.172 147.582C466.958 146.864 466.503 146.241 465.884 145.818C465.265 145.395 464.52 145.199 463.772 145.261H406.606C405.063 145.276 404.105 145.965 404.449 147.522Z" fill="#263238"/>
<path opacity="0.6" d="M404.449 147.522L414.933 194.999C415.126 195.758 415.564 196.434 416.178 196.921C416.792 197.408 417.549 197.679 418.333 197.695H475.514C475.872 197.689 476.224 197.599 476.541 197.432C476.858 197.266 477.131 197.027 477.339 196.736C477.548 196.445 477.685 196.109 477.74 195.755C477.795 195.402 477.766 195.04 477.656 194.699L467.172 147.582C466.958 146.864 466.503 146.241 465.884 145.818C465.265 145.395 464.52 145.199 463.772 145.261H406.606C405.063 145.276 404.105 145.965 404.449 147.522Z" fill="white"/>
<path opacity="0.4" d="M404.449 147.522L414.933 194.999C415.126 195.758 415.564 196.434 416.178 196.921C416.792 197.408 417.549 197.68 418.333 197.695H473.567C473.925 197.688 474.277 197.598 474.594 197.431C474.911 197.265 475.185 197.027 475.395 196.736C475.604 196.446 475.743 196.11 475.8 195.757C475.857 195.403 475.831 195.041 475.724 194.699L465.24 147.582C465.024 146.865 464.568 146.244 463.95 145.822C463.331 145.399 462.587 145.201 461.84 145.261H406.606C405.063 145.276 404.105 145.965 404.449 147.522Z" fill="white"/>
<path opacity="0.2" d="M444.857 173.328L443.883 168.924H428.996L429.97 173.328H444.857Z" fill="black"/>
<path d="M374.84 124.996C374.836 125.891 374.751 126.783 374.585 127.662L353.783 238.131H322.451C319.949 238.131 317.549 237.137 315.779 235.368C314.01 233.598 313.016 231.198 313.016 228.696V110.828H360.627C364.39 110.824 368.001 112.314 370.666 114.971C373.331 117.627 374.832 121.233 374.84 124.996Z" fill="#407BFF"/>
<path opacity="0.4" d="M374.84 124.996C374.836 125.891 374.751 126.783 374.585 127.662L353.783 238.131H322.451C319.949 238.131 317.549 237.137 315.779 235.368C314.01 233.598 313.016 231.198 313.016 228.696V110.828H360.627C364.39 110.824 368.001 112.314 370.666 114.971C373.331 117.627 374.832 121.233 374.84 124.996Z" fill="white"/>
<path opacity="0.2" d="M353.783 238.131H324.877L346.684 122.405C347.292 119.152 349.019 116.213 351.565 114.099C354.111 111.985 357.317 110.828 360.627 110.828C362.715 110.827 364.778 111.287 366.669 112.174C368.559 113.062 370.231 114.356 371.564 115.964C372.897 117.571 373.859 119.453 374.381 121.475C374.903 123.497 374.973 125.61 374.585 127.662L353.783 238.131Z" fill="black"/>
<path d="M523.65 31.4513H480.876C476.263 31.4513 471.77 35.0008 471.77 39.5987V72.5478C471.77 77.1456 476.263 80.8749 480.876 80.8749H505.977L526.54 92.6167L518.198 80.8749H523.725C524.803 80.8694 525.869 80.648 526.86 80.2239C527.851 79.7997 528.747 79.1813 529.496 78.4051C530.244 77.6289 530.829 76.7108 531.217 75.7048C531.604 74.6988 531.786 73.6253 531.752 72.5478V39.5987C531.783 38.5243 531.595 37.4547 531.199 36.4553C530.804 35.4559 530.209 34.5474 529.451 33.7852C528.693 33.0231 527.787 32.4231 526.79 32.0219C525.793 31.6206 524.725 31.4265 523.65 31.4513Z" fill="white"/>
<path d="M518.036 59.6195C520.169 50.579 514.57 41.5205 505.53 39.3867C496.489 37.253 487.431 42.852 485.297 51.8925C483.163 60.933 488.762 69.9915 497.803 72.1252C506.843 74.259 515.902 68.6599 518.036 59.6195Z" fill="#407BFF"/>
<path opacity="0.4" d="M518.036 59.6195C520.169 50.579 514.57 41.5205 505.53 39.3867C496.489 37.253 487.431 42.852 485.297 51.8925C483.163 60.933 488.762 69.9915 497.803 72.1252C506.843 74.259 515.902 68.6599 518.036 59.6195Z" fill="white"/>
<path d="M493.741 54.3658L500.226 62.034L510.71 47.9258" stroke="white" stroke-width="2" stroke-linecap="round" stroke-linejoin="round"/>
</svg>
