<svg width="18" height="18" viewBox="0 0 18 18" fill="none" xmlns="http://www.w3.org/2000/svg">
<path fill-rule="evenodd" clip-rule="evenodd" d="M9 18C13.9706 18 18 13.9706 18 9C18 4.02944 13.9706 0 9 0C4.02944 0 0 4.02944 0 9C0 13.9706 4.02944 18 9 18ZM13.4003 6.19524C13.1074 5.93492 12.6326 5.93492 12.3397 6.19524L8.1231 9.94159L6.28022 8.30423L6.19608 8.23971C5.90243 8.04613 5.48577 8.06773 5.21956 8.30443C4.92673 8.5648 4.92683 8.98687 5.21978 9.24713L7.59378 11.3562L7.6779 11.4207C7.97151 11.6143 8.3881 11.5927 8.65433 11.3561L13.4003 7.13794L13.4729 7.06318C13.6908 6.80222 13.6666 6.43189 13.4003 6.19524Z" fill="#66C9FF"/>
</svg>
